<?xml version="1.0" encoding="utf-8"?>
<!-- Generator: Adobe Illustrator 15.0.0, SVG Export Plug-In . SVG Version: 6.00 Build 0)  -->
<!DOCTYPE svg PUBLIC "-//W3C//DTD SVG 1.1//EN" "http://www.w3.org/Graphics/SVG/1.1/DTD/svg11.dtd">
<svg version="1.1" id="Layer_1" xmlns="http://www.w3.org/2000/svg" xmlns:xlink="http://www.w3.org/1999/xlink" x="0px" y="0px"
	 width="190.102px" height="173.597px" viewBox="0 0 190.102 173.597" enable-background="new 0 0 190.102 173.597"
	 xml:space="preserve">
<rect x="-407.7" y="363.042" fill="#3F3F41" width="312.73" height="161.028"/>
<g>
	<path fill="#F9C814" d="M-167.654,493.441c0,0.779-0.637,1.416-1.417,1.416h-117.653c-0.78,0-1.417-0.637-1.417-1.416v-12.471
		c0-0.779,0.638-1.416,1.417-1.416h117.653c0.78,0,1.417,0.637,1.417,1.416V493.441z"/>
</g>
<g>
	<path fill="#FFFFFF" d="M-336.055,431.664h0.609v3.682c0,0.437,0.008,0.709,0.025,0.817c0.03,0.24,0.101,0.441,0.212,0.603
		c0.111,0.162,0.281,0.299,0.51,0.407s0.46,0.163,0.692,0.163c0.202,0,0.395-0.042,0.581-0.128s0.34-0.204,0.464-0.356
		c0.125-0.152,0.216-0.336,0.274-0.552c0.042-0.154,0.062-0.473,0.062-0.954v-3.682h0.61v3.682c0,0.545-0.053,0.985-0.16,1.32
		c-0.107,0.336-0.319,0.629-0.639,0.878s-0.706,0.373-1.159,0.373c-0.492,0-0.913-0.117-1.265-0.353s-0.585-0.547-0.705-0.934
		c-0.074-0.236-0.112-0.666-0.112-1.285V431.664z"/>
	<path fill="#FFFFFF" d="M-328.342,433.746l-0.373,0.385c-0.311-0.301-0.614-0.451-0.91-0.451c-0.189,0-0.351,0.062-0.485,0.186
		c-0.134,0.125-0.201,0.27-0.201,0.436c0,0.146,0.055,0.287,0.166,0.419c0.111,0.136,0.344,0.294,0.699,0.478
		c0.432,0.223,0.726,0.439,0.881,0.646c0.151,0.211,0.228,0.447,0.228,0.709c0,0.37-0.131,0.684-0.391,0.941
		c-0.26,0.257-0.585,0.386-0.976,0.386c-0.26,0-0.509-0.058-0.745-0.171c-0.237-0.112-0.433-0.27-0.588-0.468l0.365-0.415
		c0.297,0.335,0.611,0.502,0.943,0.502c0.233,0,0.432-0.074,0.594-0.225c0.164-0.148,0.246-0.324,0.246-0.525
		c0-0.166-0.054-0.314-0.162-0.444c-0.109-0.128-0.353-0.287-0.732-0.481c-0.407-0.21-0.684-0.418-0.832-0.621
		c-0.146-0.205-0.22-0.439-0.22-0.701c0-0.344,0.117-0.627,0.352-0.854c0.233-0.228,0.529-0.341,0.886-0.341
		C-329.181,433.136-328.763,433.339-328.342,433.746z"/>
	<path fill="#FFFFFF" d="M-323.516,436.267l0.489,0.257c-0.161,0.315-0.346,0.569-0.556,0.764c-0.21,0.193-0.448,0.341-0.71,0.441
		c-0.263,0.1-0.561,0.151-0.893,0.151c-0.736,0-1.312-0.241-1.726-0.724c-0.416-0.482-0.623-1.027-0.623-1.637
		c0-0.572,0.175-1.082,0.527-1.529c0.446-0.569,1.042-0.854,1.789-0.854c0.77,0,1.383,0.292,1.843,0.875
		c0.326,0.411,0.493,0.926,0.498,1.542h-4.06c0.011,0.523,0.178,0.955,0.503,1.289c0.323,0.335,0.724,0.503,1.199,0.503
		c0.23,0,0.453-0.04,0.671-0.12c0.217-0.08,0.401-0.186,0.554-0.317C-323.857,436.774-323.693,436.561-323.516,436.267z
		 M-323.516,435.052c-0.078-0.31-0.19-0.557-0.338-0.743c-0.148-0.186-0.344-0.334-0.588-0.447c-0.243-0.113-0.5-0.17-0.768-0.17
		c-0.442,0-0.823,0.143-1.141,0.428c-0.233,0.207-0.409,0.518-0.528,0.933H-323.516z"/>
	<path fill="#FFFFFF" d="M-322.014,433.252h0.593v0.659c0.177-0.261,0.364-0.454,0.56-0.583c0.196-0.128,0.401-0.192,0.613-0.192
		c0.161,0,0.332,0.051,0.515,0.153l-0.303,0.489c-0.122-0.053-0.224-0.079-0.307-0.079c-0.194,0-0.38,0.08-0.56,0.238
		c-0.18,0.159-0.316,0.406-0.411,0.74c-0.072,0.258-0.108,0.777-0.108,1.561v1.525h-0.593V433.252z"/>
	<path fill="#FFFFFF" d="M-319.24,433.252h0.581v0.809c0.232-0.311,0.489-0.541,0.771-0.695c0.282-0.152,0.589-0.229,0.92-0.229
		c0.337,0,0.637,0.086,0.898,0.257c0.261,0.172,0.454,0.402,0.578,0.693c0.125,0.289,0.187,0.742,0.187,1.355v2.322h-0.581v-2.152
		c0-0.52-0.022-0.867-0.064-1.041c-0.067-0.299-0.197-0.523-0.388-0.674s-0.439-0.226-0.747-0.226c-0.35,0-0.666,0.116-0.943,0.349
		s-0.461,0.52-0.549,0.861c-0.055,0.225-0.083,0.635-0.083,1.229v1.654h-0.581V433.252z"/>
	<path fill="#FFFFFF" d="M-309.566,433.252v4.512h-0.572v-0.775c-0.244,0.295-0.516,0.518-0.819,0.668
		c-0.303,0.148-0.633,0.224-0.993,0.224c-0.639,0-1.184-0.231-1.636-0.694c-0.452-0.464-0.678-1.027-0.678-1.69
		c0-0.649,0.228-1.206,0.684-1.667c0.457-0.461,1.005-0.692,1.646-0.692c0.37,0,0.706,0.079,1.005,0.236
		c0.3,0.157,0.563,0.394,0.79,0.709v-0.829H-309.566z M-311.886,433.695c-0.324,0-0.621,0.08-0.895,0.238
		c-0.273,0.159-0.49,0.382-0.652,0.669s-0.243,0.591-0.243,0.911c0,0.317,0.082,0.621,0.245,0.912
		c0.163,0.289,0.381,0.515,0.656,0.676c0.275,0.162,0.569,0.243,0.884,0.243c0.317,0,0.619-0.079,0.903-0.241
		c0.284-0.158,0.503-0.375,0.656-0.649c0.153-0.273,0.23-0.581,0.23-0.923c0-0.521-0.172-0.959-0.516-1.311
		C-310.96,433.871-311.383,433.695-311.886,433.695z"/>
	<path fill="#FFFFFF" d="M-308.264,433.252h0.581v0.779c0.202-0.287,0.409-0.498,0.623-0.63c0.293-0.177,0.601-0.266,0.926-0.266
		c0.219,0,0.426,0.042,0.622,0.128c0.197,0.087,0.357,0.201,0.482,0.343s0.232,0.347,0.323,0.612
		c0.194-0.354,0.435-0.623,0.725-0.807c0.29-0.184,0.602-0.276,0.935-0.276c0.311,0,0.587,0.079,0.825,0.236
		c0.239,0.157,0.416,0.378,0.531,0.659c0.116,0.282,0.174,0.705,0.174,1.27v2.463h-0.593v-2.463c0-0.484-0.034-0.816-0.104-0.998
		c-0.068-0.182-0.187-0.326-0.354-0.438c-0.166-0.11-0.365-0.166-0.597-0.166c-0.281,0-0.538,0.084-0.77,0.25
		c-0.233,0.165-0.403,0.387-0.511,0.662c-0.106,0.277-0.161,0.738-0.161,1.386v1.767h-0.581v-2.311c0-0.543-0.034-0.914-0.102-1.108
		s-0.186-0.352-0.354-0.469s-0.369-0.177-0.601-0.177c-0.269,0-0.52,0.082-0.753,0.243c-0.233,0.161-0.406,0.38-0.518,0.653
		c-0.112,0.273-0.168,0.692-0.168,1.256v1.912h-0.581V433.252z"/>
	<path fill="#FFFFFF" d="M-296.496,436.267l0.49,0.257c-0.161,0.315-0.347,0.569-0.556,0.764c-0.21,0.193-0.448,0.341-0.71,0.441
		c-0.263,0.1-0.561,0.151-0.893,0.151c-0.736,0-1.311-0.241-1.726-0.724c-0.416-0.482-0.623-1.027-0.623-1.637
		c0-0.572,0.175-1.082,0.527-1.529c0.446-0.569,1.042-0.854,1.789-0.854c0.77,0,1.383,0.292,1.843,0.875
		c0.326,0.411,0.493,0.926,0.498,1.542h-4.06c0.012,0.523,0.178,0.955,0.503,1.289c0.323,0.335,0.724,0.503,1.199,0.503
		c0.23,0,0.453-0.04,0.671-0.12c0.217-0.08,0.401-0.186,0.554-0.317C-296.837,436.774-296.673,436.561-296.496,436.267z
		 M-296.496,435.052c-0.078-0.31-0.19-0.557-0.338-0.743c-0.148-0.186-0.344-0.334-0.587-0.447c-0.244-0.113-0.5-0.17-0.769-0.17
		c-0.442,0-0.823,0.143-1.141,0.428c-0.233,0.207-0.409,0.518-0.528,0.933H-296.496z"/>
	<path fill="#FFFFFF" d="M-294.136,433.136c0.141,0,0.261,0.05,0.361,0.149c0.099,0.1,0.149,0.221,0.149,0.365
		c0,0.144-0.05,0.266-0.149,0.365c-0.1,0.099-0.22,0.148-0.361,0.148c-0.141,0-0.261-0.05-0.361-0.148
		c-0.1-0.1-0.149-0.222-0.149-0.365c0-0.142,0.05-0.263,0.149-0.363S-294.277,433.136-294.136,433.136z M-294.136,436.852
		c0.141,0,0.261,0.049,0.361,0.148c0.099,0.1,0.149,0.221,0.149,0.365c0,0.141-0.05,0.263-0.149,0.363
		c-0.1,0.1-0.22,0.151-0.361,0.151c-0.141,0-0.261-0.052-0.361-0.151c-0.1-0.101-0.149-0.223-0.149-0.363
		c0-0.145,0.05-0.266,0.149-0.365S-294.277,436.852-294.136,436.852z"/>
</g>
<g>
	<path fill="#FFFFFF" d="M-333.094,449.084h1.215c0.697,0,1.167,0.031,1.41,0.092c0.349,0.086,0.634,0.262,0.854,0.529
		c0.221,0.266,0.332,0.602,0.332,1.006c0,0.406-0.107,0.74-0.323,1.006c-0.216,0.264-0.513,0.441-0.892,0.531
		c-0.277,0.066-0.793,0.1-1.551,0.1h-0.436v2.838h-0.609V449.084z M-332.485,449.682v2.07l1.033,0.012
		c0.417,0,0.723-0.039,0.917-0.113c0.194-0.076,0.345-0.199,0.456-0.369s0.166-0.359,0.166-0.568c0-0.205-0.055-0.391-0.166-0.561
		s-0.256-0.291-0.438-0.363c-0.182-0.07-0.478-0.107-0.89-0.107H-332.485z"/>
	<path fill="#FFFFFF" d="M-323.665,450.674v4.512h-0.572v-0.775c-0.244,0.295-0.517,0.518-0.819,0.666
		c-0.303,0.15-0.633,0.225-0.993,0.225c-0.638,0-1.184-0.23-1.636-0.695c-0.452-0.463-0.678-1.025-0.678-1.689
		c0-0.65,0.228-1.205,0.684-1.666s1.004-0.693,1.646-0.693c0.37,0,0.706,0.08,1.006,0.236c0.299,0.158,0.563,0.395,0.79,0.709
		v-0.828H-323.665z M-325.985,451.117c-0.323,0-0.621,0.08-0.895,0.238c-0.274,0.158-0.49,0.381-0.652,0.668
		c-0.162,0.287-0.242,0.592-0.242,0.912c0,0.316,0.082,0.621,0.245,0.91c0.163,0.291,0.381,0.516,0.656,0.678
		c0.274,0.162,0.569,0.242,0.884,0.242c0.317,0,0.619-0.08,0.903-0.24s0.503-0.377,0.656-0.65s0.23-0.582,0.23-0.924
		c0-0.521-0.172-0.957-0.515-1.309C-325.059,451.293-325.482,451.117-325.985,451.117z"/>
	<path fill="#FFFFFF" d="M-320.09,451.166l-0.373,0.387c-0.311-0.303-0.614-0.453-0.91-0.453c-0.189,0-0.351,0.063-0.485,0.188
		c-0.134,0.125-0.201,0.27-0.201,0.436c0,0.146,0.055,0.285,0.166,0.418c0.111,0.137,0.344,0.295,0.699,0.477
		c0.432,0.225,0.726,0.439,0.881,0.648c0.151,0.209,0.228,0.445,0.228,0.709c0,0.369-0.131,0.684-0.391,0.941
		c-0.26,0.256-0.585,0.385-0.976,0.385c-0.26,0-0.509-0.057-0.745-0.17c-0.237-0.113-0.432-0.27-0.588-0.469l0.365-0.414
		c0.297,0.334,0.611,0.502,0.943,0.502c0.233,0,0.432-0.076,0.594-0.225c0.164-0.148,0.246-0.324,0.246-0.527
		c0-0.166-0.054-0.313-0.162-0.443c-0.109-0.127-0.353-0.287-0.732-0.48c-0.407-0.211-0.684-0.418-0.832-0.623
		c-0.146-0.203-0.22-0.438-0.22-0.699c0-0.344,0.117-0.627,0.352-0.855c0.233-0.227,0.529-0.34,0.886-0.34
		C-320.929,450.557-320.511,450.76-320.09,451.166z"/>
	<path fill="#FFFFFF" d="M-316.793,451.166l-0.374,0.387c-0.311-0.303-0.613-0.453-0.91-0.453c-0.188,0-0.35,0.063-0.485,0.188
		c-0.134,0.125-0.201,0.27-0.201,0.436c0,0.146,0.055,0.285,0.166,0.418c0.111,0.137,0.344,0.295,0.699,0.477
		c0.433,0.225,0.726,0.439,0.881,0.648c0.151,0.209,0.228,0.445,0.228,0.709c0,0.369-0.13,0.684-0.391,0.941
		c-0.26,0.256-0.586,0.385-0.976,0.385c-0.26,0-0.509-0.057-0.746-0.17c-0.237-0.113-0.432-0.27-0.587-0.469l0.365-0.414
		c0.296,0.334,0.61,0.502,0.943,0.502c0.233,0,0.431-0.076,0.594-0.225c0.164-0.148,0.246-0.324,0.246-0.527
		c0-0.166-0.054-0.313-0.162-0.443c-0.108-0.127-0.352-0.287-0.731-0.48c-0.408-0.211-0.685-0.418-0.832-0.623
		c-0.146-0.203-0.22-0.438-0.22-0.699c0-0.344,0.117-0.627,0.351-0.855c0.233-0.227,0.529-0.34,0.887-0.34
		C-317.632,450.557-317.214,450.76-316.793,451.166z"/>
	<path fill="#FFFFFF" d="M-316.375,450.674h0.597l1.383,3.275l1.44-3.275h0.104l1.449,3.275l1.41-3.275h0.603l-1.96,4.512h-0.107
		l-1.443-3.23l-1.442,3.23h-0.108L-316.375,450.674z"/>
	<path fill="#FFFFFF" d="M-306.572,450.557c0.694,0,1.271,0.252,1.728,0.756c0.416,0.459,0.623,1.002,0.623,1.629
		c0,0.631-0.22,1.182-0.658,1.652c-0.439,0.473-1.003,0.707-1.693,0.707c-0.693,0-1.259-0.234-1.697-0.707
		c-0.438-0.471-0.658-1.021-0.658-1.652c0-0.625,0.208-1.166,0.623-1.625C-307.847,450.811-307.27,450.557-306.572,450.557z
		 M-306.574,451.125c-0.483,0-0.897,0.178-1.244,0.535c-0.348,0.357-0.521,0.787-0.521,1.293c0,0.328,0.079,0.631,0.237,0.912
		c0.158,0.283,0.371,0.5,0.641,0.654c0.27,0.152,0.565,0.23,0.886,0.23c0.322,0,0.617-0.078,0.887-0.23
		c0.27-0.154,0.483-0.371,0.641-0.654c0.159-0.281,0.237-0.584,0.237-0.912c0-0.506-0.174-0.936-0.522-1.293
		S-306.094,451.125-306.574,451.125z"/>
	<path fill="#FFFFFF" d="M-303.367,450.674h0.593v0.658c0.177-0.26,0.364-0.453,0.56-0.582c0.196-0.129,0.401-0.193,0.614-0.193
		c0.161,0,0.332,0.051,0.514,0.154l-0.303,0.488c-0.121-0.053-0.224-0.078-0.307-0.078c-0.194,0-0.38,0.08-0.56,0.238
		c-0.179,0.158-0.316,0.406-0.41,0.74c-0.072,0.258-0.108,0.777-0.108,1.559v1.527h-0.593V450.674z"/>
	<path fill="#FFFFFF" d="M-296.089,448.932v6.254h-0.572v-0.775c-0.244,0.295-0.517,0.518-0.819,0.666
		c-0.302,0.15-0.633,0.225-0.993,0.225c-0.639,0-1.184-0.23-1.636-0.695c-0.452-0.463-0.678-1.025-0.678-1.689
		c0-0.65,0.228-1.205,0.684-1.666s1.004-0.693,1.646-0.693c0.37,0,0.706,0.08,1.005,0.236c0.3,0.158,0.563,0.395,0.79,0.709v-2.57
		H-296.089z M-298.409,451.117c-0.323,0-0.621,0.08-0.895,0.238c-0.274,0.158-0.49,0.381-0.652,0.668
		c-0.162,0.287-0.242,0.592-0.242,0.912c0,0.316,0.082,0.621,0.245,0.91c0.163,0.291,0.381,0.516,0.656,0.678
		c0.274,0.162,0.569,0.242,0.884,0.242c0.317,0,0.619-0.08,0.903-0.24s0.503-0.377,0.656-0.65s0.23-0.582,0.23-0.924
		c0-0.521-0.172-0.957-0.515-1.309C-297.483,451.293-297.906,451.117-298.409,451.117z"/>
	<path fill="#FFFFFF" d="M-294.136,450.557c0.141,0,0.261,0.051,0.361,0.15c0.099,0.1,0.149,0.221,0.149,0.363
		c0,0.145-0.05,0.266-0.149,0.365c-0.1,0.1-0.22,0.15-0.361,0.15c-0.141,0-0.261-0.051-0.361-0.15s-0.149-0.221-0.149-0.365
		c0-0.141,0.05-0.262,0.149-0.361C-294.397,450.607-294.277,450.557-294.136,450.557z M-294.136,454.273
		c0.141,0,0.261,0.049,0.361,0.148c0.099,0.1,0.149,0.221,0.149,0.365c0,0.141-0.05,0.262-0.149,0.363
		c-0.1,0.1-0.22,0.15-0.361,0.15c-0.141,0-0.261-0.051-0.361-0.15c-0.1-0.102-0.149-0.223-0.149-0.363
		c0-0.145,0.05-0.266,0.149-0.365S-294.277,454.273-294.136,454.273z"/>
</g>
<g>
	<path fill="#FFFFFF" d="M-287.62,472.613v-4.559h3.076v0.537h-2.472v1.412h2.14v0.537h-2.14v2.072H-287.62z"/>
	<path fill="#FFFFFF" d="M-284.04,470.961c0-0.611,0.17-1.064,0.51-1.359c0.284-0.244,0.63-0.365,1.039-0.365
		c0.454,0,0.825,0.148,1.113,0.445s0.433,0.709,0.433,1.232c0,0.426-0.064,0.76-0.191,1.004s-0.313,0.434-0.557,0.568
		s-0.51,0.201-0.798,0.201c-0.462,0-0.836-0.148-1.121-0.445C-283.897,471.947-284.04,471.52-284.04,470.961z M-283.465,470.961
		c0,0.424,0.092,0.74,0.277,0.951s0.417,0.314,0.697,0.314c0.278,0,0.509-0.105,0.693-0.316s0.277-0.533,0.277-0.967
		c0-0.408-0.093-0.719-0.278-0.93c-0.186-0.209-0.416-0.314-0.692-0.314c-0.28,0-0.512,0.104-0.697,0.314
		C-283.373,470.223-283.465,470.539-283.465,470.961z"/>
	<path fill="#FFFFFF" d="M-280.295,472.613v-3.303h0.504v0.5c0.128-0.234,0.247-0.389,0.356-0.463s0.229-0.111,0.359-0.111
		c0.188,0,0.38,0.059,0.575,0.18l-0.193,0.52c-0.137-0.082-0.273-0.121-0.41-0.121c-0.123,0-0.232,0.037-0.33,0.109
		c-0.097,0.074-0.167,0.176-0.208,0.307c-0.063,0.199-0.093,0.418-0.093,0.654v1.729H-280.295z"/>
	<path fill="#FFFFFF" d="M-278.271,472.887l0.544,0.08c0.023,0.17,0.086,0.291,0.19,0.369c0.139,0.104,0.329,0.154,0.569,0.154
		c0.259,0,0.459-0.051,0.601-0.154c0.141-0.104,0.236-0.25,0.286-0.438c0.029-0.113,0.042-0.354,0.041-0.717
		c-0.245,0.287-0.55,0.432-0.915,0.432c-0.454,0-0.806-0.164-1.054-0.492c-0.249-0.326-0.374-0.721-0.374-1.178
		c0-0.316,0.057-0.605,0.171-0.873c0.114-0.266,0.279-0.473,0.496-0.617c0.216-0.145,0.471-0.217,0.763-0.217
		c0.39,0,0.711,0.156,0.964,0.473v-0.398h0.516v2.855c0,0.514-0.052,0.879-0.157,1.094c-0.104,0.215-0.271,0.383-0.498,0.508
		s-0.506,0.188-0.838,0.188c-0.394,0-0.712-0.09-0.955-0.268C-278.162,473.512-278.279,473.244-278.271,472.887z M-277.807,470.902
		c0,0.434,0.086,0.75,0.258,0.949c0.172,0.199,0.388,0.299,0.647,0.299c0.257,0,0.473-0.1,0.647-0.297
		c0.174-0.199,0.261-0.51,0.261-0.932c0-0.404-0.09-0.709-0.269-0.916c-0.179-0.205-0.396-0.307-0.648-0.307
		c-0.249,0-0.46,0.102-0.634,0.303C-277.72,470.205-277.807,470.504-277.807,470.902z"/>
	<path fill="#FFFFFF" d="M-274.834,470.961c0-0.611,0.17-1.064,0.51-1.359c0.284-0.244,0.63-0.365,1.039-0.365
		c0.454,0,0.825,0.148,1.113,0.445s0.433,0.709,0.433,1.232c0,0.426-0.064,0.76-0.191,1.004s-0.313,0.434-0.557,0.568
		s-0.51,0.201-0.798,0.201c-0.462,0-0.836-0.148-1.121-0.445C-274.691,471.947-274.834,471.52-274.834,470.961z M-274.259,470.961
		c0,0.424,0.092,0.74,0.277,0.951s0.417,0.314,0.697,0.314c0.278,0,0.509-0.105,0.693-0.316s0.277-0.533,0.277-0.967
		c0-0.408-0.093-0.719-0.278-0.93c-0.186-0.209-0.416-0.314-0.692-0.314c-0.28,0-0.512,0.104-0.697,0.314
		C-274.167,470.223-274.259,470.539-274.259,470.961z"/>
	<path fill="#FFFFFF" d="M-269.861,472.113l0.081,0.494c-0.158,0.033-0.299,0.049-0.423,0.049c-0.203,0-0.36-0.031-0.473-0.096
		c-0.112-0.064-0.19-0.148-0.236-0.254c-0.045-0.105-0.068-0.324-0.068-0.66v-1.9h-0.411v-0.436h0.411v-0.818l0.557-0.336v1.154
		h0.563v0.436h-0.563v1.932c0,0.158,0.01,0.262,0.03,0.307c0.02,0.047,0.052,0.082,0.096,0.109s0.108,0.041,0.191,0.041
		C-270.044,472.135-269.962,472.127-269.861,472.113z"/>
	<path fill="#FFFFFF" d="M-267.569,473.887l-0.062-0.527c0.122,0.033,0.229,0.051,0.32,0.051c0.124,0,0.224-0.021,0.298-0.063
		s0.136-0.1,0.184-0.174c0.035-0.057,0.092-0.195,0.171-0.418c0.01-0.031,0.027-0.076,0.05-0.137l-1.253-3.309h0.604l0.687,1.912
		c0.089,0.242,0.169,0.498,0.24,0.766c0.064-0.258,0.141-0.508,0.23-0.754l0.706-1.924h0.56l-1.257,3.359
		c-0.135,0.363-0.239,0.613-0.314,0.75c-0.1,0.184-0.213,0.318-0.342,0.404c-0.128,0.088-0.282,0.131-0.46,0.131
		C-267.316,473.955-267.436,473.932-267.569,473.887z"/>
	<path fill="#FFFFFF" d="M-264.568,470.961c0-0.611,0.17-1.064,0.51-1.359c0.284-0.244,0.63-0.365,1.039-0.365
		c0.454,0,0.825,0.148,1.113,0.445s0.433,0.709,0.433,1.232c0,0.426-0.064,0.76-0.191,1.004s-0.313,0.434-0.557,0.568
		s-0.51,0.201-0.798,0.201c-0.462,0-0.836-0.148-1.121-0.445C-264.425,471.947-264.568,471.52-264.568,470.961z M-263.993,470.961
		c0,0.424,0.092,0.74,0.277,0.951s0.417,0.314,0.697,0.314c0.278,0,0.509-0.105,0.693-0.316s0.277-0.533,0.277-0.967
		c0-0.408-0.093-0.719-0.278-0.93c-0.186-0.209-0.416-0.314-0.692-0.314c-0.28,0-0.512,0.104-0.697,0.314
		C-263.9,470.223-263.993,470.539-263.993,470.961z"/>
	<path fill="#FFFFFF" d="M-258.652,472.613v-0.486c-0.257,0.375-0.606,0.561-1.048,0.561c-0.195,0-0.376-0.037-0.545-0.111
		s-0.294-0.168-0.376-0.281s-0.14-0.252-0.173-0.416c-0.022-0.109-0.034-0.283-0.034-0.521v-2.047h0.56v1.832
		c0,0.291,0.011,0.488,0.034,0.59c0.035,0.148,0.11,0.264,0.224,0.348c0.114,0.084,0.255,0.125,0.423,0.125s0.325-0.043,0.473-0.129
		c0.147-0.086,0.251-0.203,0.313-0.352s0.092-0.363,0.092-0.645v-1.77h0.56v3.303H-258.652z"/>
	<path fill="#FFFFFF" d="M-257.281,472.613v-3.303h0.504v0.5c0.128-0.234,0.247-0.389,0.356-0.463s0.229-0.111,0.359-0.111
		c0.188,0,0.38,0.059,0.575,0.18l-0.193,0.52c-0.137-0.082-0.273-0.121-0.41-0.121c-0.123,0-0.232,0.037-0.33,0.109
		c-0.097,0.074-0.167,0.176-0.208,0.307c-0.063,0.199-0.093,0.418-0.093,0.654v1.729H-257.281z"/>
	<path fill="#FFFFFF" d="M-253.384,473.879v-4.568h0.51v0.43c0.121-0.168,0.256-0.295,0.408-0.379s0.335-0.125,0.55-0.125
		c0.282,0,0.531,0.072,0.747,0.217c0.215,0.145,0.378,0.35,0.488,0.615c0.11,0.264,0.165,0.553,0.165,0.869
		c0,0.338-0.061,0.641-0.182,0.912c-0.122,0.27-0.298,0.479-0.529,0.621c-0.231,0.145-0.474,0.217-0.729,0.217
		c-0.187,0-0.354-0.039-0.502-0.117c-0.148-0.08-0.27-0.18-0.366-0.299v1.607H-253.384z M-252.877,470.98
		c0,0.426,0.086,0.738,0.258,0.941c0.172,0.203,0.38,0.305,0.625,0.305c0.249,0,0.462-0.104,0.639-0.314s0.266-0.537,0.266-0.979
		c0-0.42-0.086-0.736-0.259-0.945c-0.173-0.209-0.38-0.314-0.621-0.314c-0.238,0-0.449,0.111-0.633,0.334
		S-252.877,470.555-252.877,470.98z"/>
	<path fill="#FFFFFF" d="M-247.686,472.205c-0.208,0.178-0.407,0.301-0.599,0.373c-0.191,0.074-0.398,0.109-0.617,0.109
		c-0.363,0-0.643-0.088-0.837-0.266s-0.292-0.404-0.292-0.68c0-0.162,0.037-0.309,0.11-0.443c0.074-0.133,0.171-0.24,0.29-0.322
		c0.119-0.08,0.253-0.141,0.403-0.184c0.109-0.027,0.275-0.057,0.497-0.084c0.452-0.053,0.784-0.117,0.998-0.191
		c0.002-0.078,0.003-0.127,0.003-0.146c0-0.229-0.053-0.389-0.158-0.482c-0.143-0.127-0.355-0.189-0.638-0.189
		c-0.263,0-0.458,0.045-0.583,0.139c-0.125,0.092-0.219,0.256-0.278,0.49l-0.548-0.076c0.051-0.234,0.132-0.424,0.246-0.566
		c0.113-0.145,0.279-0.256,0.494-0.334c0.216-0.078,0.466-0.115,0.75-0.115c0.281,0,0.511,0.033,0.688,0.1
		c0.176,0.066,0.306,0.148,0.389,0.25c0.082,0.1,0.141,0.227,0.174,0.381c0.019,0.096,0.028,0.268,0.028,0.516v0.746
		c0,0.521,0.012,0.85,0.036,0.988c0.023,0.137,0.07,0.27,0.141,0.396h-0.584C-247.632,472.496-247.669,472.361-247.686,472.205z
		 M-247.733,470.955c-0.203,0.084-0.508,0.154-0.914,0.211c-0.23,0.033-0.394,0.072-0.488,0.113
		c-0.096,0.041-0.169,0.102-0.222,0.182c-0.051,0.08-0.077,0.168-0.077,0.266c0,0.148,0.057,0.273,0.169,0.373
		c0.113,0.1,0.279,0.15,0.496,0.15s0.408-0.049,0.576-0.143s0.291-0.223,0.37-0.387c0.06-0.127,0.09-0.313,0.09-0.561V470.955z"/>
	<path fill="#FFFFFF" d="M-246.523,471.627l0.554-0.086c0.031,0.221,0.118,0.391,0.26,0.51c0.142,0.117,0.341,0.176,0.596,0.176
		c0.257,0,0.448-0.051,0.572-0.156s0.187-0.227,0.187-0.369c0-0.125-0.055-0.225-0.165-0.299c-0.077-0.049-0.268-0.111-0.572-0.189
		c-0.411-0.104-0.694-0.193-0.854-0.268c-0.159-0.076-0.278-0.182-0.36-0.314c-0.082-0.135-0.123-0.281-0.123-0.443
		c0-0.148,0.033-0.283,0.101-0.41c0.067-0.125,0.159-0.229,0.275-0.313c0.087-0.063,0.206-0.117,0.356-0.162
		s0.311-0.066,0.483-0.066c0.259,0,0.487,0.037,0.683,0.111s0.34,0.176,0.434,0.303s0.158,0.299,0.193,0.512l-0.548,0.074
		c-0.024-0.17-0.097-0.303-0.216-0.396c-0.119-0.096-0.288-0.145-0.506-0.145c-0.257,0-0.44,0.043-0.551,0.129
		c-0.109,0.084-0.164,0.184-0.164,0.297c0,0.074,0.022,0.139,0.068,0.197c0.045,0.061,0.117,0.109,0.215,0.148
		c0.056,0.021,0.221,0.068,0.494,0.143c0.396,0.107,0.672,0.193,0.828,0.26c0.157,0.068,0.28,0.166,0.369,0.295
		c0.09,0.129,0.134,0.287,0.134,0.479c0,0.188-0.054,0.363-0.163,0.527s-0.266,0.293-0.471,0.383
		c-0.206,0.09-0.438,0.135-0.697,0.135c-0.43,0-0.756-0.09-0.981-0.268C-246.317,472.242-246.46,471.979-246.523,471.627z"/>
	<path fill="#FFFFFF" d="M-243.338,471.627l0.554-0.086c0.031,0.221,0.117,0.391,0.26,0.51c0.143,0.117,0.34,0.176,0.596,0.176
		c0.257,0,0.447-0.051,0.572-0.156c0.124-0.105,0.187-0.227,0.187-0.369c0-0.125-0.056-0.225-0.165-0.299
		c-0.076-0.049-0.268-0.111-0.572-0.189c-0.41-0.104-0.695-0.193-0.854-0.268c-0.158-0.076-0.279-0.182-0.361-0.314
		c-0.082-0.135-0.123-0.281-0.123-0.443c0-0.148,0.034-0.283,0.102-0.41c0.067-0.125,0.159-0.229,0.275-0.313
		c0.087-0.063,0.205-0.117,0.355-0.162s0.313-0.066,0.484-0.066c0.26,0,0.486,0.037,0.683,0.111s0.341,0.176,0.434,0.303
		s0.157,0.299,0.192,0.512l-0.547,0.074c-0.025-0.17-0.097-0.303-0.216-0.396c-0.12-0.096-0.288-0.145-0.505-0.145
		c-0.258,0-0.441,0.043-0.551,0.129c-0.11,0.084-0.165,0.184-0.165,0.297c0,0.074,0.022,0.139,0.068,0.197
		c0.046,0.061,0.117,0.109,0.214,0.148c0.057,0.021,0.221,0.068,0.495,0.143c0.396,0.107,0.673,0.193,0.829,0.26
		c0.156,0.068,0.279,0.166,0.368,0.295s0.134,0.287,0.134,0.479c0,0.188-0.055,0.363-0.163,0.527s-0.267,0.293-0.472,0.383
		s-0.438,0.135-0.696,0.135c-0.429,0-0.757-0.09-0.981-0.268S-243.276,471.979-243.338,471.627z"/>
	<path fill="#FFFFFF" d="M-239.32,472.613l-1.012-3.303h0.579l0.525,1.906l0.196,0.709c0.008-0.035,0.064-0.262,0.171-0.682
		l0.525-1.934h0.575l0.494,1.916l0.166,0.631l0.189-0.637l0.566-1.91h0.543l-1.031,3.303h-0.582l-0.525-1.979l-0.128-0.563
		l-0.669,2.541H-239.32z"/>
	<path fill="#FFFFFF" d="M-235.539,470.961c0-0.611,0.17-1.064,0.51-1.359c0.284-0.244,0.631-0.365,1.039-0.365
		c0.454,0,0.825,0.148,1.113,0.445s0.433,0.709,0.433,1.232c0,0.426-0.063,0.76-0.191,1.004s-0.313,0.434-0.557,0.568
		s-0.51,0.201-0.798,0.201c-0.463,0-0.836-0.148-1.121-0.445C-235.396,471.947-235.539,471.52-235.539,470.961z M-234.963,470.961
		c0,0.424,0.093,0.74,0.276,0.951c0.186,0.211,0.418,0.314,0.697,0.314c0.277,0,0.509-0.105,0.693-0.316s0.277-0.533,0.277-0.967
		c0-0.408-0.094-0.719-0.279-0.93c-0.186-0.209-0.416-0.314-0.691-0.314c-0.279,0-0.512,0.104-0.697,0.314
		C-234.871,470.223-234.963,470.539-234.963,470.961z"/>
	<path fill="#FFFFFF" d="M-231.794,472.613v-3.303h0.504v0.5c0.129-0.234,0.248-0.389,0.356-0.463s0.229-0.111,0.359-0.111
		c0.188,0,0.38,0.059,0.575,0.18l-0.193,0.52c-0.137-0.082-0.273-0.121-0.41-0.121c-0.122,0-0.232,0.037-0.33,0.109
		c-0.097,0.074-0.166,0.176-0.207,0.307c-0.063,0.199-0.094,0.418-0.094,0.654v1.729H-231.794z"/>
	<path fill="#FFFFFF" d="M-227.524,472.613v-0.416c-0.21,0.326-0.517,0.49-0.923,0.49c-0.264,0-0.506-0.072-0.727-0.217
		c-0.221-0.146-0.393-0.348-0.514-0.609c-0.121-0.26-0.182-0.559-0.182-0.896c0-0.33,0.055-0.629,0.164-0.896
		c0.11-0.27,0.275-0.475,0.495-0.619c0.22-0.143,0.466-0.213,0.737-0.213c0.199,0,0.376,0.041,0.531,0.125
		c0.156,0.084,0.282,0.193,0.38,0.328v-1.635h0.557v4.559H-227.524z M-229.293,470.965c0,0.422,0.089,0.738,0.268,0.949
		c0.179,0.209,0.389,0.313,0.632,0.313c0.244,0,0.452-0.1,0.623-0.299c0.171-0.201,0.256-0.506,0.256-0.916
		c0-0.453-0.086-0.783-0.261-0.996c-0.174-0.211-0.389-0.316-0.644-0.316c-0.249,0-0.457,0.102-0.623,0.305
		C-229.21,470.207-229.293,470.527-229.293,470.965z"/>
	<path fill="#FFFFFF" d="M-225.076,471.49c-0.002-0.074-0.004-0.131-0.004-0.168c0-0.219,0.031-0.41,0.094-0.568
		c0.045-0.121,0.119-0.242,0.221-0.365c0.074-0.088,0.209-0.219,0.402-0.389c0.194-0.172,0.32-0.309,0.379-0.41
		c0.058-0.102,0.086-0.213,0.086-0.332c0-0.219-0.084-0.41-0.254-0.574s-0.379-0.248-0.625-0.248c-0.239,0-0.438,0.076-0.598,0.225
		s-0.265,0.383-0.314,0.699l-0.575-0.068c0.052-0.424,0.206-0.75,0.462-0.977c0.256-0.225,0.595-0.338,1.016-0.338
		c0.445,0,0.801,0.121,1.066,0.363s0.398,0.535,0.398,0.881c0,0.199-0.047,0.381-0.141,0.549c-0.093,0.168-0.275,0.373-0.547,0.613
		c-0.183,0.162-0.302,0.281-0.357,0.357c-0.057,0.078-0.098,0.166-0.125,0.266c-0.026,0.1-0.042,0.26-0.047,0.484H-225.076z
		 M-225.111,472.613v-0.639h0.639v0.639H-225.111z"/>
</g>
<g>
	<g>
		<path fill="#3F3F41" d="M-244.554,489.957v-7.6h1.006v6.701h3.742v0.898H-244.554z"/>
		<path fill="#3F3F41" d="M-239.076,487.203c0-1.018,0.283-1.773,0.85-2.264c0.475-0.408,1.051-0.613,1.732-0.613
			c0.756,0,1.375,0.248,1.855,0.746c0.479,0.494,0.721,1.18,0.721,2.055c0,0.707-0.106,1.266-0.32,1.67
			c-0.211,0.406-0.521,0.723-0.926,0.947c-0.407,0.225-0.851,0.336-1.33,0.336c-0.771,0-1.395-0.246-1.869-0.74
			C-238.838,488.846-239.076,488.135-239.076,487.203z M-238.117,487.203c0,0.705,0.153,1.232,0.461,1.584
			c0.309,0.352,0.695,0.527,1.162,0.527c0.463,0,0.848-0.178,1.155-0.529c0.308-0.354,0.462-0.891,0.462-1.613
			c0-0.68-0.155-1.195-0.464-1.547c-0.31-0.35-0.694-0.525-1.153-0.525c-0.467,0-0.854,0.174-1.162,0.523
			C-237.963,485.973-238.117,486.498-238.117,487.203z"/>
		<path fill="#3F3F41" d="M-232.996,490.412l0.907,0.135c0.038,0.279,0.144,0.484,0.315,0.611c0.232,0.174,0.549,0.26,0.949,0.26
			c0.432,0,0.766-0.086,1-0.26c0.236-0.172,0.395-0.414,0.478-0.725c0.048-0.189,0.07-0.59,0.067-1.197
			c-0.408,0.479-0.916,0.721-1.523,0.721c-0.758,0-1.344-0.273-1.758-0.82c-0.414-0.545-0.622-1.199-0.622-1.965
			c0-0.525,0.095-1.01,0.285-1.453c0.189-0.443,0.466-0.787,0.826-1.029c0.362-0.24,0.786-0.363,1.272-0.363
			c0.65,0,1.186,0.264,1.607,0.789v-0.664h0.86v4.758c0,0.857-0.087,1.465-0.261,1.824c-0.176,0.355-0.453,0.639-0.83,0.846
			c-0.379,0.207-0.845,0.311-1.396,0.311c-0.656,0-1.188-0.146-1.592-0.441C-232.814,491.451-233.009,491.006-232.996,490.412z
			 M-232.223,487.105c0,0.723,0.144,1.25,0.431,1.58c0.287,0.332,0.646,0.498,1.078,0.498c0.428,0,0.787-0.164,1.078-0.494
			c0.29-0.33,0.436-0.848,0.436-1.553c0-0.674-0.15-1.182-0.448-1.523c-0.3-0.344-0.659-0.514-1.081-0.514
			c-0.415,0-0.768,0.168-1.058,0.504C-232.078,485.941-232.223,486.441-232.223,487.105z"/>
		<path fill="#3F3F41" d="M-224.158,486.256c0-1.262,0.339-2.25,1.016-2.963c0.678-0.713,1.553-1.07,2.623-1.07
			c0.701,0,1.334,0.168,1.896,0.502c0.563,0.336,0.992,0.803,1.289,1.404c0.295,0.598,0.443,1.279,0.443,2.039
			c0,0.77-0.156,1.459-0.467,2.068c-0.311,0.607-0.752,1.068-1.322,1.381s-1.185,0.469-1.846,0.469
			c-0.715,0-1.354-0.174-1.917-0.518c-0.563-0.346-0.99-0.818-1.28-1.416C-224.013,487.555-224.158,486.922-224.158,486.256z
			 M-223.121,486.271c0,0.914,0.245,1.637,0.738,2.162c0.492,0.529,1.109,0.791,1.854,0.791c0.756,0,1.379-0.266,1.869-0.797
			c0.488-0.533,0.732-1.289,0.732-2.266c0-0.619-0.105-1.158-0.314-1.619c-0.208-0.463-0.514-0.818-0.916-1.074
			c-0.403-0.254-0.855-0.381-1.355-0.381c-0.713,0-1.326,0.244-1.838,0.732C-222.865,484.311-223.121,485.127-223.121,486.271z"/>
		<path fill="#3F3F41" d="M-215.714,489.957v-5.506h0.84v0.783c0.404-0.605,0.988-0.908,1.752-0.908c0.332,0,0.637,0.061,0.914,0.18
			c0.279,0.119,0.488,0.275,0.625,0.469c0.139,0.193,0.236,0.424,0.291,0.689c0.034,0.174,0.052,0.475,0.052,0.908v3.385h-0.933
			v-3.35c0-0.381-0.037-0.664-0.109-0.852c-0.072-0.189-0.201-0.34-0.386-0.453c-0.186-0.111-0.401-0.168-0.651-0.168
			c-0.396,0-0.74,0.127-1.027,0.379c-0.289,0.252-0.434,0.73-0.434,1.436v3.008H-215.714z"/>
	</g>
</g>
<rect x="-288.142" y="428.244" fill="#FFFFFF" width="120.488" height="13.093"/>
<rect x="-288.142" y="445.584" fill="#FFFFFF" width="120.488" height="13.092"/>
<g>
	<g opacity="0.66">
		<path fill="#896412" d="M-129.535,649.939c0,0-1.613-0.051-1.387,1.914c0,0-0.303,0.232-0.832-0.1
			c-0.376-0.236-0.882-0.914-1.137-1.875c-0.033-0.01-0.066-0.014-0.1-0.021c-0.713-0.203-1.346-0.471-1.906-0.795
			c0.172,3.6,3.243,5.086,4.42,5.211c1.055,0.113,2.682-0.301,2.756-2.52C-127.657,649.889-129.535,649.939-129.535,649.939z"/>
		<path fill="#896412" d="M-123.546,642.469c-0.075,0.699-0.236,1.357-0.432,1.945c1.146,0.576,1.896,1.469,2.258,2.65
			c0.73,2.396-0.379,4.26-1.061,4.689c-0.527,0.332-0.83,0.1-0.83,0.1c0.227-1.965-1.387-1.914-1.387-1.914
			s-1.879-0.051-1.814,1.814c0.074,2.219,1.699,2.633,2.755,2.52c1.403-0.15,5.513-2.217,4.177-7.512
			C-120.443,644.541-121.953,643.219-123.546,642.469z"/>
		<path fill="#896412" d="M-125.435,637.063c-0.516,0.148-1.117,0.418-1.717,0.91c0.137,0.121,0.273,0.248,0.406,0.391
			c1.479,1.586,1.643,3.744,0.153,6.49c-0.19,0.309-0.382,0.59-0.579,0.852c0.465,0.604,0.957,1.084,1.473,1.443
			c0.384-0.445,0.693-0.879,0.908-1.254C-123.774,644.133-122.572,640.008-125.435,637.063z"/>
		<path fill="#896412" d="M-128.859,647.352c-1.072,0.707-2.227,0.895-3.432,0.615c-2.439-0.564-3.5-2.455-3.531-3.26
			c-0.024-0.625,0.329-0.771,0.329-0.771c1.589,1.182,2.352-0.242,2.352-0.242s0.982-1.602-0.664-2.48
			c-1.959-1.043-3.132,0.156-3.56,1.127c-0.572,1.291-0.837,5.885,4.416,7.371c2.205,0.627,4.104-0.02,5.55-1.025
			C-127.962,648.271-128.453,647.811-128.859,647.352z"/>
		<path fill="#896412" d="M-133.351,640.428c1.582,0.986,2.478-0.664,2.478-0.664s0.852-1.371-0.964-2.156
			c0,0-0.049-0.381,0.502-0.672c0.394-0.207,1.231-0.307,2.191-0.047c0.024-0.025,0.045-0.051,0.069-0.076
			c0.532-0.518,1.083-0.938,1.647-1.262c-3.206-1.66-6.031,0.273-6.729,1.23C-134.782,637.639-135.236,639.254-133.351,640.428z"/>
		<path fill="#896412" d="M-117.167,642.34c-0.429-0.971-1.602-2.17-3.561-1.127c-1.646,0.879-0.664,2.48-0.664,2.48
			s0.763,1.422,2.352,0.242c0,0,0.354,0.146,0.33,0.771c-0.02,0.441-0.361,1.211-1.061,1.91c0.012,0.037,0.027,0.07,0.036,0.107
			c0.181,0.719,0.265,1.4,0.265,2.049C-116.439,646.826-116.689,643.422-117.167,642.34z"/>
		<path fill="#896412" d="M-126.242,643.766c0.293-0.709,0.453-1.373,0.505-2.002c-0.571-0.109-1.1-0.158-1.53-0.158
			c-2.033,0-6.205,1.021-7.326,4.969c0.422,0.402,0.964,0.77,1.649,1.029c0.034-0.178,0.075-0.355,0.132-0.539
			c0.633-2.072,2.42-3.295,5.545-3.377C-126.906,643.697-126.567,643.725-126.242,643.766z"/>
		<path fill="#896412" d="M-130.854,642.248c0.638-0.283,1.282-0.477,1.885-0.602c-0.077-1.283,0.337-2.379,1.182-3.283
			c1.708-1.83,3.878-1.803,4.591-1.428c0.551,0.291,0.502,0.67,0.502,0.67c-1.816,0.787-0.966,2.158-0.966,2.158
			s0.896,1.65,2.479,0.664c1.883-1.174,1.43-2.791,0.805-3.646c-0.833-1.139-4.678-3.664-8.593,0.139
			C-130.615,638.52-131.003,640.49-130.854,642.248z"/>
		<path fill="#896412" d="M-121.764,649.752c0.136-0.566,0.179-1.23,0.057-1.953c-0.175,0.059-0.343,0.125-0.535,0.168
			c-2.111,0.488-4.063-0.447-5.696-3.113c-0.173-0.316-0.319-0.623-0.449-0.926c-0.758,0.102-1.414,0.293-1.984,0.563
			c0.193,0.551,0.414,1.031,0.63,1.404C-128.725,647.658-125.75,650.766-121.764,649.752z"/>
	</g>
	<g opacity="0.45">
		<path fill="#896412" d="M-150.832,661.146v-4.488h0.547v4.488H-150.832z"/>
		<path fill="#896412" d="M-144.361,661.146h-0.252l-1.131-2.68c-0.156-0.369-0.313-0.771-0.469-1.205h-0.027
			c0.031,0.623,0.047,1.195,0.047,1.713v2.172h-0.547v-4.488h0.789l1.057,2.539c0.119,0.291,0.253,0.641,0.398,1.051h0.017
			c0.161-0.455,0.294-0.805,0.399-1.051l1.057-2.539h0.789v4.488h-0.547v-2.172c0-0.506,0.015-1.078,0.047-1.713h-0.027
			c-0.166,0.459-0.322,0.859-0.47,1.205L-144.361,661.146z"/>
		<path fill="#896412" d="M-136.509,658.826c0.139,0.02,0.264,0.057,0.373,0.109c0.111,0.055,0.206,0.123,0.286,0.207
			c0.079,0.084,0.14,0.182,0.183,0.297c0.043,0.117,0.064,0.248,0.064,0.395c0,0.105-0.017,0.215-0.048,0.332
			c-0.03,0.115-0.082,0.227-0.153,0.336c-0.072,0.107-0.166,0.207-0.282,0.299s-0.261,0.166-0.433,0.225
			c-0.133,0.045-0.281,0.076-0.441,0.094c-0.162,0.018-0.355,0.027-0.58,0.027h-1.149v-4.488h1.108c0.101,0,0.193,0.002,0.275,0.006
			c0.084,0.002,0.159,0.008,0.229,0.016c0.07,0.006,0.135,0.014,0.195,0.023c0.06,0.012,0.116,0.021,0.169,0.035
			c0.139,0.039,0.266,0.09,0.38,0.156c0.113,0.066,0.209,0.145,0.289,0.236s0.143,0.195,0.185,0.313
			c0.044,0.117,0.065,0.242,0.065,0.379c0,0.109-0.014,0.215-0.039,0.316c-0.026,0.1-0.066,0.191-0.125,0.277
			c-0.057,0.086-0.131,0.16-0.221,0.229c-0.091,0.066-0.201,0.123-0.33,0.166V658.826z M-137.311,658.6
			c0.106,0,0.2-0.004,0.278-0.016c0.078-0.01,0.149-0.023,0.211-0.045c0.168-0.055,0.29-0.143,0.367-0.262
			c0.077-0.117,0.116-0.258,0.116-0.418c0-0.166-0.041-0.301-0.12-0.406c-0.081-0.105-0.208-0.184-0.379-0.234
			c-0.086-0.025-0.184-0.041-0.296-0.053c-0.112-0.01-0.243-0.014-0.396-0.014h-0.615v1.447H-137.311z M-138.144,659.094v1.559
			h0.662c0.156,0,0.302-0.006,0.436-0.02c0.135-0.016,0.248-0.039,0.342-0.068c0.103-0.035,0.19-0.078,0.262-0.131
			c0.072-0.053,0.13-0.111,0.173-0.174c0.044-0.064,0.075-0.133,0.095-0.203c0.019-0.072,0.027-0.145,0.027-0.219
			c0-0.084-0.01-0.164-0.029-0.24c-0.021-0.074-0.053-0.141-0.1-0.201c-0.046-0.059-0.105-0.111-0.181-0.154
			c-0.075-0.047-0.167-0.08-0.28-0.105c-0.066-0.016-0.143-0.027-0.229-0.033s-0.192-0.01-0.319-0.01H-138.144z"/>
		<path fill="#896412" d="M-132.664,661.146l1.829-4.488h0.474l1.828,4.488h-0.595l-0.536-1.352h-1.876l-0.536,1.352H-132.664z
			 M-130.603,657.355c-0.2,0.559-0.391,1.066-0.574,1.523l-0.167,0.422h1.487l-0.17-0.422c-0.184-0.463-0.371-0.973-0.563-1.523
			H-130.603z"/>
		<path fill="#896412" d="M-123.136,659.16c0.275,0.396,0.547,0.803,0.815,1.221h0.021c-0.03-0.436-0.044-0.881-0.044-1.334v-2.389
			h0.55v4.488h-0.547l-1.761-2.502c-0.305-0.438-0.576-0.844-0.815-1.223h-0.02c0.028,0.41,0.043,0.889,0.043,1.434v2.291h-0.547
			v-4.488h0.543L-123.136,659.16z"/>
		<path fill="#896412" d="M-118.253,661.146v-4.488h0.547v4.488H-118.253z"/>
		<path fill="#896412" d="M-112.55,661.146h-0.548v-3.994h-1.499v-0.494h3.545v0.494h-1.498V661.146z"/>
		<path fill="#896412" d="M-108.765,661.146l1.828-4.488h0.474l1.828,4.488h-0.594l-0.536-1.352h-1.877l-0.535,1.352H-108.765z
			 M-106.705,657.355c-0.201,0.559-0.392,1.066-0.573,1.523l-0.168,0.422h1.487l-0.17-0.422c-0.186-0.463-0.373-0.973-0.563-1.523
			H-106.705z"/>
	</g>
</g>
<g>
	<g>
		<path fill-rule="evenodd" clip-rule="evenodd" fill="#896412" d="M126.421,72.963c0,0.658,0,1.321,0,1.98
			c-1.141,4.575-8.443,6.376-13.125,3.718c2.322,7.783,0.518,14.071-2.477,19.562c-1.455,2.665-4.275,6.016-4.459,8.422
			c-0.186,2.387,2.123,6.101,0.994,9.658c-1.008,3.151-4.631,3.953-7.682,4.953c-3.053,0-6.109,0-9.162,0
			c-3.473-0.906-6.557-2.195-7.927-5.203c-0.924-3.694,1.376-6.23,1.24-9.162c-0.128-2.691-3.242-5.923-4.705-8.668
			c-2.632-4.932-4.503-12.403-2.229-19.316c-4.236,2.025-12.084,0.861-13.125-3.963c0-0.659,0-1.322,0-1.98
			c3.664-2.441,12.42-2.332,16.096,0c0.827-0.988,2.035-1.594,2.971-2.475c-4.48-1.625-7.816-5.723-6.93-11.891
			c1.98,4.783,5.899,7.639,13.372,6.938c1.423-1.653,1.784-3.743,3.716-4.46c4.283-1.59,6.291,1.844,8.17,4.46
			c7.563,0.788,10.996-2.545,13.374-6.938c0.407,6.849-2.897,9.982-7.179,12.14c1.417,0.276,2.298,2.251,3.465,1.978
			C114.546,70.607,122.958,70.63,126.421,72.963z M106.608,79.65c-1.323-2.205-7.762-4.044-11.889-3.962
			c-3.225,0.065-9.451,1.681-10.896,3.715c-1.91,2.686-0.841,6.028-0.495,9.902c2.032,1.715,4.524,2.066,5.944,3.964
			c1.999,2.68,1.896,6.893,1.485,9.658c-0.75,5.064-5.715,7.971-5.202,13.125c0.81-0.357,2.099-1.238,3.218-0.493
			c0.221,1.312-1.275,1.881-0.74,2.726c4.012,1.273,10.106,1.273,14.117,0c0.551-0.752-1.301-1.973-0.498-2.973
			c1.51-0.275,2.051,0.426,2.976,0.74c0.062-5.988-4.507-8.241-5.202-13.617c-0.285-2.204-0.473-5.454,0.742-8.176
			c1.143-2.554,4.439-3.027,6.687-4.955C107.229,85.975,108.133,82.196,106.608,79.65z"/>
	</g>
	<g>
		<path fill="#896412" d="M66.691,51.569l-4.644-6.499l1.324-0.944l3.851,5.396l3.293-2.354l0.788,1.104L66.691,51.569z"/>
		<path fill="#896412" d="M72.118,47.898l-3.964-7.009l1.415-0.8l3.963,7.008L72.118,47.898z"/>
		<path fill="#896412" d="M76.556,45.601l-5.803-6.281l1.622-0.692l4.208,4.687l-0.518-6.254l1.585-0.676l0.502,8.539L76.556,45.601
			z"/>
		<path fill="#896412" d="M81.331,43.685l-1.932-7.816l5.795-1.434l0.327,1.321L81.306,36.8l0.428,1.733l3.923-0.972l0.327,1.319
			l-3.925,0.969l0.524,2.126l4.367-1.076l0.326,1.314L81.331,43.685z"/>
		<path fill="#896412" d="M87.694,39.485l1.563-0.285c0.14,0.521,0.364,0.893,0.677,1.116c0.311,0.225,0.713,0.316,1.205,0.274
			c0.52-0.043,0.906-0.186,1.15-0.429c0.244-0.242,0.357-0.511,0.332-0.807c-0.018-0.189-0.088-0.348-0.209-0.472
			c-0.123-0.122-0.326-0.222-0.611-0.299c-0.194-0.05-0.639-0.129-1.324-0.24c-0.889-0.144-1.52-0.355-1.898-0.64
			c-0.526-0.402-0.818-0.919-0.871-1.551c-0.034-0.409,0.046-0.803,0.248-1.177s0.512-0.673,0.934-0.896
			c0.423-0.224,0.938-0.36,1.558-0.412c1.006-0.084,1.784,0.073,2.329,0.47c0.545,0.398,0.86,0.967,0.95,1.701l-1.614,0.206
			c-0.104-0.405-0.279-0.689-0.521-0.851s-0.592-0.224-1.049-0.186c-0.471,0.038-0.829,0.168-1.081,0.383
			c-0.163,0.139-0.231,0.311-0.217,0.521c0.015,0.19,0.109,0.343,0.283,0.467c0.22,0.152,0.728,0.289,1.534,0.408
			c0.803,0.12,1.4,0.266,1.795,0.434c0.395,0.164,0.716,0.411,0.959,0.739c0.239,0.326,0.383,0.744,0.425,1.252
			c0.038,0.457-0.054,0.899-0.274,1.324c-0.223,0.421-0.559,0.75-1.007,0.984c-0.45,0.234-1.024,0.38-1.724,0.44
			c-1.014,0.083-1.811-0.083-2.396-0.506C88.259,41.03,87.877,40.374,87.694,39.485z"/>
		<path fill="#896412" d="M97.345,41.705l0.445-6.675l-2.386-0.158l0.092-1.36l6.384,0.424l-0.092,1.361l-2.378-0.159l-0.443,6.676
			L97.345,41.705z"/>
		<path fill="#896412" d="M102.433,38.069c0.183-0.798,0.457-1.445,0.823-1.929c0.271-0.358,0.599-0.66,0.978-0.908
			c0.381-0.247,0.773-0.402,1.176-0.473c0.539-0.094,1.127-0.065,1.764,0.081c1.156,0.269,2,0.838,2.527,1.719
			c0.528,0.875,0.646,1.951,0.35,3.231c-0.29,1.266-0.866,2.179-1.719,2.732c-0.852,0.558-1.859,0.702-3.01,0.437
			c-1.166-0.27-2.012-0.839-2.537-1.71C102.262,40.377,102.146,39.316,102.433,38.069z M104.078,38.394
			c-0.203,0.886-0.158,1.608,0.148,2.159c0.305,0.554,0.773,0.903,1.403,1.051c0.632,0.146,1.205,0.035,1.713-0.325
			c0.508-0.362,0.868-0.996,1.08-1.907c0.205-0.898,0.164-1.612-0.128-2.148c-0.292-0.534-0.767-0.875-1.417-1.026
			c-0.654-0.149-1.232-0.046-1.734,0.308C104.64,36.858,104.286,37.488,104.078,38.394z"/>
		<path fill="#896412" d="M115.933,43.373l1.252,1.084c-0.57,0.713-1.196,1.154-1.883,1.321c-0.683,0.169-1.426,0.084-2.217-0.259
			c-0.982-0.422-1.642-1.104-1.986-2.048c-0.342-0.945-0.264-1.999,0.236-3.16c0.529-1.233,1.262-2.051,2.189-2.457
			c0.932-0.408,1.912-0.387,2.948,0.061c0.905,0.388,1.522,0.972,1.858,1.75c0.198,0.46,0.256,1.023,0.17,1.689l-1.631-0.286
			c0.08-0.419,0.026-0.798-0.154-1.142c-0.184-0.343-0.473-0.599-0.872-0.771c-0.546-0.236-1.076-0.233-1.585,0.016
			c-0.511,0.246-0.957,0.81-1.336,1.691c-0.401,0.936-0.521,1.67-0.357,2.213c0.164,0.544,0.516,0.931,1.053,1.161
			c0.398,0.17,0.797,0.191,1.189,0.063C115.2,44.174,115.577,43.864,115.933,43.373z"/>
		<path fill="#896412" d="M117.16,47.252l4.402-6.738l1.364,0.889l-1.957,2.994l4.704-1.196l1.83,1.196l-4.254,0.965l-0.017,5.865
			l-1.756-1.152l0.212-4.375l-1.841,0.406l-1.33,2.037L117.16,47.252z"/>
		<path fill="#896412" d="M139.582,78.321l6.588-1.149l-0.411-2.352l1.342-0.236l1.098,6.304l-1.336,0.232l-0.416-2.345l-6.586,1.15
			L139.582,78.321z"/>
		<path fill="#896412" d="M140.339,83.028l8.05-0.131l0.056,3.419c0.012,0.863-0.05,1.487-0.188,1.879
			c-0.138,0.395-0.388,0.711-0.753,0.95c-0.369,0.24-0.787,0.363-1.264,0.371c-0.605,0.009-1.107-0.157-1.506-0.507
			c-0.4-0.35-0.655-0.874-0.77-1.582c-0.199,0.355-0.42,0.651-0.663,0.882c-0.239,0.232-0.669,0.547-1.289,0.946l-1.556,1.008
			l-0.031-1.942l1.731-1.205c0.618-0.428,1.013-0.72,1.17-0.874c0.163-0.156,0.269-0.324,0.327-0.495
			c0.057-0.172,0.082-0.447,0.078-0.821l-0.007-0.329l-3.362,0.055L140.339,83.028z M145.011,84.577l0.021,1.205
			c0.01,0.778,0.051,1.267,0.119,1.458c0.068,0.193,0.186,0.344,0.35,0.449c0.16,0.106,0.364,0.16,0.607,0.157
			c0.269-0.005,0.489-0.08,0.65-0.231c0.164-0.145,0.266-0.351,0.309-0.614c0.016-0.132,0.018-0.531,0.008-1.188l-0.021-1.269
			L145.011,84.577z"/>
		<path fill="#896412" d="M139.234,97.968l0.271-1.75l1.917-0.412l0.495-3.177l-1.704-0.938l0.267-1.705l7.473,4.339l-0.268,1.703
			L139.234,97.968z M142.843,95.503l3.123-0.637l-2.785-1.534L142.843,95.503z"/>
		<path fill="#896412" d="M140.18,104.317l-0.979,1.33c-0.752-0.513-1.24-1.102-1.466-1.771c-0.222-0.67-0.194-1.412,0.085-2.23
			c0.346-1.014,0.975-1.729,1.884-2.143c0.917-0.418,1.972-0.421,3.173-0.014c1.27,0.43,2.141,1.094,2.619,1.986
			c0.479,0.896,0.539,1.877,0.176,2.943c-0.316,0.934-0.852,1.598-1.602,1.992c-0.441,0.234-1.002,0.338-1.67,0.301l0.154-1.647
			c0.43,0.047,0.803-0.038,1.129-0.245c0.328-0.209,0.561-0.517,0.699-0.928c0.19-0.562,0.145-1.09-0.141-1.582
			c-0.283-0.486-0.885-0.889-1.791-1.197c-0.966-0.325-1.711-0.387-2.237-0.18c-0.528,0.209-0.884,0.59-1.073,1.144
			c-0.14,0.409-0.127,0.807,0.033,1.188C139.33,103.647,139.667,103.998,140.18,104.317z"/>
		<path fill="#896412" d="M136.406,105.849l7.066,3.865l-0.782,1.422l-3.139-1.713l1.563,4.6l-1.053,1.914l-1.291-4.162
			l-5.848,0.443l1.012-1.845l4.376-0.126l-0.55-1.805l-2.135-1.167L136.406,105.849z"/>
		<path fill="#896412" d="M132.46,112.595l6.553,4.678l-0.947,1.322l-6.554-4.679L132.46,112.595z"/>
		<path fill="#896412" d="M130.796,115.032l5.96,5.415l-1.063,1.169l-6.195-1.176l3.977,3.615l-1.014,1.117l-5.959-5.414
			l1.098-1.207l6.068,1.129l-3.885-3.531L130.796,115.032z"/>
		<path fill="#896412" d="M124.341,125.354l0.826,1.074l-2.773,2.137l-1.959-2.544c0.071-0.469,0.283-0.999,0.645-1.59
			c0.356-0.593,0.802-1.093,1.324-1.497c0.668-0.512,1.359-0.819,2.072-0.922c0.709-0.101,1.389,0.016,2.043,0.34
			c0.648,0.332,1.207,0.801,1.68,1.412c0.512,0.667,0.826,1.365,0.945,2.098c0.118,0.727,0.015,1.439-0.308,2.126
			c-0.249,0.526-0.677,1.025-1.286,1.494c-0.792,0.61-1.538,0.919-2.24,0.928c-0.701,0.009-1.34-0.226-1.918-0.716l1.094-1.225
			c0.333,0.244,0.693,0.363,1.08,0.354c0.387-0.012,0.763-0.158,1.138-0.446c0.563-0.432,0.873-0.953,0.932-1.565
			c0.057-0.612-0.187-1.271-0.724-1.973c-0.583-0.759-1.186-1.196-1.814-1.313c-0.631-0.123-1.215,0.028-1.762,0.447
			c-0.27,0.204-0.5,0.467-0.691,0.783c-0.189,0.316-0.324,0.623-0.402,0.924l0.622,0.81L124.341,125.354z"/>
		<path fill="#896412" d="M88.179,131.745l-1.126,6.594l2.353,0.402l-0.229,1.344l-6.306-1.082l0.226-1.343l2.354,0.402l1.131-6.594
			L88.179,131.745z"/>
		<path fill="#896412" d="M83.495,130.886l-2.604,7.617l-3.238-1.105c-0.814-0.28-1.383-0.549-1.704-0.812
			c-0.324-0.265-0.534-0.61-0.638-1.036c-0.102-0.425-0.074-0.863,0.08-1.313c0.193-0.569,0.523-0.985,0.986-1.242
			c0.463-0.259,1.047-0.319,1.75-0.19c-0.269-0.307-0.467-0.612-0.607-0.92c-0.133-0.305-0.288-0.82-0.453-1.535l-0.422-1.805
			l1.838,0.629l0.546,2.035c0.194,0.729,0.336,1.195,0.43,1.398c0.091,0.205,0.209,0.363,0.353,0.477s0.392,0.229,0.747,0.348
			l0.311,0.107l1.089-3.18L83.495,130.886z M80.454,134.756l-1.137-0.39c-0.74-0.253-1.21-0.378-1.416-0.378
			c-0.205,0-0.387,0.054-0.541,0.173c-0.156,0.117-0.273,0.292-0.352,0.52c-0.09,0.256-0.09,0.488-0.008,0.691
			c0.083,0.204,0.242,0.369,0.478,0.496c0.118,0.061,0.489,0.194,1.114,0.409l1.201,0.409L80.454,134.756z"/>
		<path fill="#896412" d="M69.825,124.782l1.551,0.852l-0.264,1.943l2.82,1.544l1.463-1.284l1.514,0.829l-6.621,5.552l-1.506-0.826
			L69.825,124.782z M70.917,129.016l-0.461,3.149l2.391-2.096L70.917,129.016z"/>
		<path fill="#896412" d="M63.543,123.535l-0.921-1.374c0.736-0.536,1.459-0.795,2.164-0.779s1.396,0.293,2.072,0.832
			c0.836,0.668,1.299,1.498,1.377,2.5c0.085,1.002-0.266,1.995-1.055,2.988c-0.841,1.049-1.757,1.645-2.761,1.794
			c-1.005,0.147-1.946-0.129-2.827-0.831c-0.77-0.613-1.215-1.34-1.332-2.176c-0.074-0.502,0.021-1.059,0.281-1.674l1.494,0.699
			c-0.184,0.387-0.231,0.77-0.147,1.145c0.085,0.379,0.298,0.7,0.636,0.97c0.467,0.372,0.979,0.505,1.534,0.404
			c0.56-0.104,1.137-0.53,1.731-1.282c0.637-0.795,0.946-1.477,0.928-2.043c-0.015-0.568-0.253-1.031-0.713-1.396
			c-0.335-0.271-0.713-0.396-1.127-0.373C64.462,122.958,64.019,123.157,63.543,123.535z"/>
		<path fill="#896412" d="M63.38,119.448l-5.98,5.389l-3.994-4.436l1.012-0.912l2.908,3.23l1.324-1.197l-2.705-3.001l1.009-0.909
			l2.706,3l1.627-1.465l-3.01-3.34l1.01-0.908L63.38,119.448z"/>
		<path fill="#896412" d="M54.728,107.935l0.951,1.49l-1.162,1.578l1.732,2.711l1.896-0.426l0.93,1.455l-8.471,1.691l-0.929-1.45
			L54.728,107.935z M53.654,112.17l-1.921,2.548l3.104-0.695L53.654,112.17z"/>
		<path fill="#896412" d="M47.12,110.565l-1.244-2.967c-0.246-0.588-0.404-1.039-0.474-1.345c-0.073-0.31-0.078-0.612-0.017-0.901
			c0.058-0.295,0.184-0.571,0.379-0.832c0.192-0.262,0.452-0.457,0.772-0.596c0.347-0.142,0.704-0.184,1.075-0.115
			c0.367,0.063,0.694,0.227,0.973,0.486c-0.061-0.508,0.021-0.949,0.237-1.327c0.215-0.376,0.536-0.651,0.964-0.832
			c0.341-0.142,0.699-0.202,1.083-0.179c0.387,0.023,0.731,0.13,1.037,0.324c0.306,0.189,0.563,0.477,0.772,0.855
			c0.134,0.24,0.4,0.836,0.811,1.787l1.057,2.527L47.12,110.565z M47.731,108.548l1.715-0.72l-0.412-0.981
			c-0.245-0.584-0.404-0.944-0.484-1.08c-0.131-0.243-0.309-0.407-0.518-0.492c-0.207-0.085-0.43-0.078-0.67,0.022
			c-0.23,0.097-0.393,0.239-0.482,0.425c-0.091,0.186-0.099,0.412-0.025,0.672c0.049,0.159,0.22,0.589,0.516,1.295L47.731,108.548z
			 M50.682,107.311l1.985-0.831l-0.582-1.391c-0.228-0.539-0.386-0.875-0.477-1.011c-0.135-0.202-0.307-0.341-0.523-0.418
			c-0.216-0.073-0.455-0.054-0.719,0.058c-0.221,0.092-0.389,0.224-0.498,0.396c-0.111,0.176-0.16,0.379-0.144,0.611
			c0.015,0.233,0.164,0.693,0.45,1.375L50.682,107.311z"/>
		<path fill="#896412" d="M51.726,100.127l-7.744,2.196l-0.444-1.563l7.747-2.2L51.726,100.127z"/>
		<path fill="#896412" d="M50.886,97.235l-7.871,1.357l-0.275-1.604l6.533-1.125l-0.684-3.983l1.336-0.232L50.886,97.235z"/>
		<path fill="#896412" d="M49.939,90.732l-8.038,0.522l-0.104-1.624l8.035-0.52L49.939,90.732z"/>
		<path fill="#896412" d="M49.794,85.975l-6.685-0.258l-0.095,2.387l-1.358-0.054l0.247-6.392l1.359,0.051l-0.09,2.382l6.684,0.26
			L49.794,85.975z"/>
		<path fill="#896412" d="M50.452,79.153l-3.327-0.64l-5.138,2.014l0.361-1.871l3.488-1.258l-2.778-2.425l0.353-1.839l4.029,3.792
			l3.316,0.638L50.452,79.153z"/>
	</g>
	<g>
		<polygon fill-rule="evenodd" clip-rule="evenodd" fill="#896412" points="53.226,63.047 51.105,62.499 49.452,63.933 
			49.317,61.747 47.44,60.619 49.477,59.815 49.971,57.679 51.366,59.371 53.548,59.182 52.371,61.027 		"/>
	</g>
	<g>
		<polygon fill-rule="evenodd" clip-rule="evenodd" fill="#896412" points="107.799,136.781 105.677,136.231 104.023,137.667 
			103.888,135.481 102.01,134.351 104.05,133.552 104.544,131.413 105.938,133.103 108.119,132.916 106.94,134.761 		"/>
	</g>
	<g>
		<polygon fill-rule="evenodd" clip-rule="evenodd" fill="#896412" points="140.292,63.047 138.173,62.496 136.517,63.933 
			136.381,61.747 134.505,60.616 136.542,59.813 137.036,57.679 138.431,59.37 140.612,59.177 139.438,61.025 		"/>
	</g>
</g>
<g opacity="0.66">
	<path fill="#896412" d="M-211.822,661.025v-4.289h1.619c0.284,0,0.501,0.012,0.652,0.039c0.211,0.035,0.387,0.102,0.529,0.199
		c0.143,0.1,0.256,0.236,0.344,0.416c0.087,0.174,0.131,0.373,0.131,0.582c0,0.367-0.117,0.676-0.349,0.93s-0.651,0.381-1.259,0.381
		h-1.101v1.742H-211.822z M-211.254,658.773h1.109c0.366,0,0.628-0.068,0.782-0.205c0.152-0.135,0.23-0.33,0.23-0.576
		c0-0.178-0.045-0.334-0.135-0.459c-0.092-0.127-0.211-0.215-0.358-0.254c-0.097-0.027-0.272-0.041-0.53-0.041h-1.099V658.773z"/>
	<path fill="#896412" d="M-208.085,659.471c0-0.578,0.158-1,0.479-1.281c0.268-0.229,0.592-0.344,0.978-0.344
		c0.427,0,0.778,0.141,1.048,0.422c0.271,0.281,0.408,0.666,0.408,1.156c0,0.404-0.061,0.719-0.18,0.947
		c-0.122,0.229-0.295,0.408-0.525,0.535s-0.48,0.189-0.751,0.189c-0.435,0-0.786-0.141-1.056-0.42
		C-207.953,660.396-208.085,659.996-208.085,659.471z M-207.546,659.471c0,0.398,0.088,0.697,0.262,0.893
		c0.174,0.201,0.393,0.297,0.655,0.297s0.48-0.096,0.653-0.299c0.172-0.197,0.26-0.5,0.26-0.906c0-0.387-0.088-0.676-0.261-0.875
		c-0.176-0.199-0.392-0.297-0.652-0.297c-0.263,0-0.481,0.096-0.655,0.297C-207.458,658.775-207.546,659.074-207.546,659.471z"/>
	<path fill="#896412" d="M-203.984,661.025l-0.951-3.109h0.545l0.494,1.793l0.186,0.668c0.008-0.031,0.063-0.248,0.161-0.641
		l0.495-1.82h0.54l0.468,1.805l0.154,0.594l0.178-0.6l0.533-1.799h0.512l-0.971,3.109h-0.547l-0.496-1.863l-0.121-0.529
		l-0.628,2.393H-203.984z"/>
	<path fill="#896412" d="M-198.1,660.023l0.545,0.07c-0.086,0.314-0.244,0.564-0.477,0.736c-0.233,0.176-0.53,0.266-0.89,0.266
		c-0.454,0-0.815-0.141-1.082-0.422s-0.4-0.672-0.4-1.176c0-0.525,0.137-0.932,0.404-1.217c0.27-0.293,0.619-0.436,1.048-0.436
		c0.416,0,0.756,0.141,1.021,0.422c0.262,0.285,0.393,0.686,0.393,1.197c0,0.033-0.001,0.08-0.001,0.141h-2.319
		c0.021,0.342,0.117,0.602,0.289,0.787c0.175,0.18,0.391,0.268,0.65,0.268c0.193,0,0.357-0.049,0.496-0.15
		C-198.289,660.408-198.18,660.248-198.1,660.023z M-199.828,659.174h1.733c-0.023-0.266-0.089-0.459-0.198-0.592
		c-0.168-0.203-0.387-0.301-0.652-0.301c-0.242,0-0.445,0.08-0.609,0.24C-199.72,658.686-199.812,658.902-199.828,659.174z"/>
	<path fill="#896412" d="M-196.899,661.025v-3.109h0.475v0.473c0.119-0.221,0.231-0.369,0.335-0.436
		c0.104-0.074,0.214-0.107,0.339-0.107c0.177,0,0.357,0.059,0.539,0.172l-0.18,0.484c-0.13-0.074-0.258-0.109-0.388-0.109
		c-0.113,0-0.218,0.031-0.309,0.102c-0.093,0.07-0.158,0.164-0.197,0.289c-0.06,0.188-0.088,0.391-0.088,0.613v1.629H-196.899z"/>
	<path fill="#896412" d="M-192.769,660.023l0.544,0.07c-0.086,0.314-0.244,0.564-0.478,0.736c-0.23,0.176-0.527,0.266-0.889,0.266
		c-0.456,0-0.815-0.141-1.081-0.422s-0.399-0.672-0.399-1.176c0-0.525,0.134-0.932,0.402-1.217c0.271-0.293,0.62-0.436,1.049-0.436
		c0.416,0,0.754,0.141,1.019,0.422c0.265,0.285,0.396,0.686,0.396,1.197c0,0.033-0.002,0.08-0.004,0.141h-2.318
		c0.021,0.342,0.116,0.602,0.291,0.787c0.174,0.18,0.39,0.268,0.65,0.268c0.191,0,0.357-0.049,0.493-0.15
		C-192.957,660.408-192.849,660.248-192.769,660.023z M-194.5,659.174h1.736c-0.023-0.266-0.089-0.459-0.198-0.592
		c-0.169-0.203-0.386-0.301-0.653-0.301c-0.242,0-0.446,0.08-0.611,0.24C-194.391,658.686-194.482,658.902-194.5,659.174z"/>
	<path fill="#896412" d="M-189.547,661.025v-0.393c-0.195,0.307-0.484,0.463-0.867,0.463c-0.25,0-0.477-0.068-0.685-0.203
		c-0.207-0.141-0.369-0.328-0.482-0.576c-0.114-0.242-0.171-0.523-0.171-0.846c0-0.309,0.05-0.59,0.154-0.844
		c0.104-0.25,0.259-0.443,0.465-0.578c0.208-0.137,0.438-0.203,0.695-0.203c0.188,0,0.353,0.041,0.5,0.119
		c0.146,0.08,0.266,0.18,0.357,0.309v-1.537h0.524v4.289H-189.547z M-191.211,659.471c0,0.402,0.085,0.701,0.251,0.895
		c0.169,0.199,0.366,0.295,0.594,0.295c0.232,0,0.428-0.094,0.588-0.283c0.161-0.188,0.24-0.471,0.24-0.859
		c0-0.424-0.08-0.734-0.244-0.938c-0.163-0.199-0.366-0.297-0.607-0.297c-0.234,0-0.43,0.094-0.587,0.285
		C-191.133,658.762-191.211,659.064-191.211,659.471z"/>
	<path fill="#896412" d="M-186.079,661.025h-0.487v-4.289h0.526v1.531c0.223-0.281,0.508-0.422,0.852-0.422
		c0.192,0,0.374,0.039,0.544,0.115s0.311,0.186,0.421,0.324s0.198,0.311,0.26,0.508c0.063,0.193,0.094,0.408,0.094,0.631
		c0,0.531-0.132,0.945-0.396,1.234c-0.263,0.293-0.578,0.438-0.946,0.438c-0.367,0-0.655-0.156-0.866-0.459V661.025z
		 M-186.083,659.447c0,0.373,0.052,0.643,0.153,0.807c0.164,0.273,0.391,0.406,0.672,0.406c0.231,0,0.43-0.096,0.598-0.299
		c0.168-0.201,0.253-0.5,0.253-0.891c0-0.406-0.082-0.707-0.242-0.902c-0.162-0.191-0.357-0.287-0.585-0.287
		c-0.229,0-0.43,0.096-0.597,0.299C-186,658.781-186.083,659.068-186.083,659.447z"/>
	<path fill="#896412" d="M-183.251,662.221l-0.061-0.494c0.116,0.031,0.218,0.047,0.304,0.047c0.116,0,0.21-0.021,0.28-0.057
		c0.07-0.041,0.126-0.094,0.173-0.166c0.031-0.049,0.086-0.182,0.16-0.393c0.011-0.029,0.026-0.07,0.047-0.125l-1.18-3.117h0.567
		l0.647,1.803c0.085,0.225,0.159,0.469,0.227,0.721c0.06-0.246,0.133-0.482,0.216-0.711l0.664-1.813h0.526l-1.181,3.164
		c-0.128,0.34-0.226,0.576-0.296,0.703c-0.094,0.172-0.203,0.299-0.322,0.383c-0.123,0.08-0.266,0.119-0.435,0.119
		C-183.015,662.285-183.126,662.268-183.251,662.221z"/>
	<path fill="#896412" d="M-178.516,661.025v-4.289h0.854l1.016,3.035c0.094,0.283,0.161,0.496,0.205,0.637
		c0.049-0.156,0.125-0.387,0.229-0.688l1.027-2.984h0.763v4.289h-0.548v-3.59l-1.245,3.59h-0.513l-1.241-3.652v3.652H-178.516z"/>
	<path fill="#896412" d="M-172.414,661.025v-3.787h-1.414v-0.502h3.402v0.502h-1.42v3.787H-172.414z"/>
	<path fill="#896412" d="M-169.849,661.025v-4.289h0.582l2.255,3.367v-3.367h0.544v4.289h-0.582l-2.256-3.371v3.371H-169.849z"/>
</g>
<rect x="-160.734" y="652.756" opacity="0.66" fill="#896412" width="0.625" height="11.695"/>
<g>
	<g>
		<g>
			<path fill="#F9C814" d="M-287.924,417.519v-4.206h0.557v3.71h2.071v0.496H-287.924z"/>
			<path fill="#F9C814" d="M-283.816,413.907v-0.595h0.517v0.595H-283.816z M-283.816,417.519v-3.046h0.517v3.046H-283.816z"/>
			<path fill="#F9C814" d="M-280.786,417.519l-1.159-3.046h0.545l0.653,1.824c0.071,0.197,0.136,0.401,0.195,0.613
				c0.046-0.161,0.11-0.354,0.192-0.579l0.677-1.858h0.531l-1.153,3.046H-280.786z"/>
			<path fill="#F9C814" d="M-275.728,416.537l0.533,0.066c-0.084,0.312-0.24,0.553-0.467,0.725
				c-0.228,0.172-0.519,0.259-0.872,0.259c-0.446,0-0.799-0.137-1.061-0.411c-0.261-0.274-0.392-0.66-0.392-1.154
				c0-0.513,0.132-0.911,0.396-1.193c0.264-0.283,0.606-0.426,1.027-0.426c0.408,0,0.74,0.14,0.998,0.416
				c0.259,0.277,0.388,0.668,0.388,1.171c0,0.03-0.001,0.076-0.003,0.138h-2.272c0.018,0.334,0.113,0.591,0.284,0.769
				c0.17,0.179,0.382,0.267,0.637,0.267c0.189,0,0.351-0.049,0.484-0.148C-275.913,416.914-275.806,416.755-275.728,416.537z
				 M-277.424,415.703h1.702c-0.023-0.256-0.088-0.449-0.196-0.578c-0.164-0.197-0.377-0.297-0.639-0.297
				c-0.238,0-0.437,0.078-0.599,0.237C-277.316,415.225-277.406,415.438-277.424,415.703z"/>
			<path fill="#F9C814" d="M-273.871,416.609l0.51-0.08c0.029,0.204,0.109,0.361,0.239,0.47c0.131,0.109,0.314,0.163,0.549,0.163
				c0.237,0,0.413-0.048,0.528-0.145c0.114-0.096,0.172-0.21,0.172-0.34c0-0.117-0.051-0.209-0.151-0.275
				c-0.072-0.046-0.247-0.104-0.528-0.175c-0.378-0.095-0.641-0.179-0.788-0.249c-0.146-0.068-0.257-0.166-0.333-0.289
				c-0.075-0.124-0.113-0.26-0.113-0.409c0-0.136,0.031-0.261,0.093-0.376c0.062-0.116,0.146-0.213,0.254-0.289
				c0.081-0.06,0.19-0.109,0.329-0.15s0.287-0.063,0.446-0.063c0.238,0,0.449,0.035,0.63,0.104c0.18,0.069,0.314,0.162,0.4,0.28
				c0.085,0.118,0.145,0.274,0.177,0.472l-0.505,0.069c-0.023-0.157-0.089-0.28-0.199-0.368s-0.266-0.131-0.466-0.131
				c-0.237,0-0.406,0.039-0.508,0.117c-0.101,0.078-0.151,0.17-0.151,0.275c0,0.066,0.021,0.127,0.063,0.181
				c0.042,0.056,0.108,0.102,0.198,0.138c0.051,0.02,0.203,0.063,0.456,0.132c0.366,0.097,0.621,0.178,0.765,0.239
				c0.144,0.063,0.258,0.152,0.34,0.271s0.123,0.266,0.123,0.441c0,0.172-0.049,0.334-0.15,0.486c-0.1,0.152-0.245,0.27-0.435,0.354
				c-0.188,0.082-0.404,0.124-0.643,0.124c-0.395,0-0.697-0.083-0.904-0.247C-273.681,417.176-273.813,416.932-273.871,416.609z"/>
			<path fill="#F9C814" d="M-268.719,417.057l0.075,0.456c-0.145,0.03-0.275,0.046-0.39,0.046c-0.188,0-0.333-0.029-0.436-0.09
				c-0.104-0.059-0.176-0.137-0.219-0.233c-0.042-0.097-0.063-0.3-0.063-0.609v-1.753h-0.378v-0.4h0.378v-0.756l0.514-0.309v1.064
				h0.519v0.4h-0.519v1.781c0,0.147,0.009,0.242,0.026,0.284c0.019,0.043,0.048,0.076,0.089,0.101
				c0.042,0.025,0.1,0.037,0.176,0.037C-268.888,417.076-268.812,417.07-268.719,417.057z"/>
			<path fill="#F9C814" d="M-267.525,415.995c0-0.564,0.157-0.981,0.47-1.253c0.262-0.227,0.582-0.34,0.958-0.34
				c0.419,0,0.762,0.139,1.027,0.412c0.266,0.275,0.399,0.654,0.399,1.137c0,0.393-0.059,0.701-0.177,0.926s-0.288,0.4-0.513,0.523
				c-0.225,0.125-0.47,0.187-0.736,0.187c-0.426,0-0.771-0.137-1.033-0.409C-267.394,416.903-267.525,416.51-267.525,415.995z
				 M-266.995,415.995c0,0.39,0.085,0.683,0.255,0.876c0.171,0.195,0.385,0.291,0.643,0.291c0.256,0,0.47-0.098,0.64-0.292
				c0.17-0.196,0.256-0.493,0.256-0.893c0-0.376-0.086-0.661-0.257-0.856c-0.171-0.193-0.384-0.291-0.639-0.291
				c-0.257,0-0.472,0.098-0.643,0.29C-266.91,415.313-266.995,415.605-266.995,415.995z"/>
			<path fill="#F9C814" d="M-261.196,416.402l0.508,0.066c-0.056,0.35-0.197,0.623-0.426,0.821c-0.229,0.198-0.51,0.297-0.842,0.297
				c-0.417,0-0.752-0.136-1.005-0.409c-0.253-0.271-0.38-0.662-0.38-1.171c0-0.329,0.054-0.617,0.164-0.864
				c0.108-0.246,0.275-0.432,0.498-0.555c0.222-0.123,0.465-0.186,0.727-0.186c0.331,0,0.601,0.084,0.812,0.252
				c0.21,0.167,0.345,0.404,0.405,0.713l-0.502,0.078c-0.048-0.206-0.132-0.359-0.255-0.463c-0.121-0.104-0.268-0.154-0.44-0.154
				c-0.26,0-0.471,0.093-0.633,0.279c-0.163,0.187-0.244,0.482-0.244,0.885c0,0.409,0.077,0.707,0.234,0.893
				c0.157,0.186,0.362,0.277,0.615,0.277c0.202,0,0.372-0.061,0.507-0.186C-261.318,416.852-261.232,416.66-261.196,416.402z"/>
			<path fill="#F9C814" d="M-259.362,417.519v-4.206h0.516v2.398l1.222-1.238h0.668l-1.164,1.129l1.282,1.917h-0.637l-1.007-1.558
				l-0.364,0.35v1.208H-259.362z"/>
			<path fill="#F9C814" d="M-252.967,417.519v-4.206h1.448c0.327,0,0.576,0.02,0.749,0.061c0.24,0.055,0.446,0.156,0.617,0.302
				c0.221,0.187,0.388,0.427,0.498,0.719s0.164,0.624,0.164,0.999c0,0.32-0.037,0.603-0.111,0.85
				c-0.074,0.246-0.17,0.451-0.287,0.612c-0.117,0.161-0.245,0.288-0.382,0.381c-0.139,0.093-0.306,0.163-0.502,0.211
				c-0.196,0.048-0.422,0.072-0.675,0.072H-252.967z M-252.411,417.022h0.897c0.277,0,0.495-0.026,0.653-0.078
				s0.284-0.124,0.378-0.218c0.131-0.133,0.234-0.309,0.308-0.531c0.073-0.224,0.11-0.494,0.11-0.812
				c0-0.44-0.072-0.777-0.217-1.013c-0.144-0.237-0.319-0.395-0.525-0.476c-0.15-0.058-0.39-0.086-0.721-0.086h-0.883V417.022z"/>
			<path fill="#F9C814" d="M-245.825,416.537l0.534,0.066c-0.085,0.312-0.241,0.553-0.469,0.725
				c-0.227,0.172-0.518,0.259-0.871,0.259c-0.446,0-0.799-0.137-1.06-0.411c-0.262-0.274-0.392-0.66-0.392-1.154
				c0-0.513,0.131-0.911,0.396-1.193c0.264-0.283,0.605-0.426,1.026-0.426c0.407,0,0.74,0.14,0.999,0.416
				c0.258,0.277,0.387,0.668,0.387,1.171c0,0.03-0.001,0.076-0.003,0.138h-2.271c0.02,0.334,0.113,0.591,0.283,0.769
				c0.17,0.179,0.383,0.267,0.638,0.267c0.188,0,0.351-0.049,0.485-0.148C-246.009,416.914-245.902,416.755-245.825,416.537z
				 M-247.519,415.703h1.7c-0.022-0.256-0.087-0.449-0.194-0.578c-0.165-0.197-0.379-0.297-0.641-0.297
				c-0.236,0-0.436,0.078-0.598,0.237S-247.503,415.438-247.519,415.703z"/>
			<path fill="#F9C814" d="M-242.916,417.519l-1.158-3.046h0.545l0.654,1.824c0.07,0.197,0.136,0.401,0.195,0.613
				c0.046-0.161,0.109-0.354,0.191-0.579l0.678-1.858h0.531l-1.153,3.046H-242.916z"/>
			<path fill="#F9C814" d="M-237.857,416.537l0.533,0.066c-0.084,0.312-0.24,0.553-0.467,0.725c-0.229,0.172-0.52,0.259-0.872,0.259
				c-0.446,0-0.8-0.137-1.06-0.411c-0.262-0.274-0.393-0.66-0.393-1.154c0-0.513,0.133-0.911,0.396-1.193
				c0.264-0.283,0.605-0.426,1.026-0.426c0.408,0,0.741,0.14,0.998,0.416c0.259,0.277,0.388,0.668,0.388,1.171
				c0,0.03-0.002,0.076-0.002,0.138h-2.272c0.019,0.334,0.114,0.591,0.283,0.769c0.171,0.179,0.383,0.267,0.638,0.267
				c0.188,0,0.35-0.049,0.484-0.148C-238.042,416.914-237.935,416.755-237.857,416.537z M-239.552,415.703h1.701
				c-0.023-0.256-0.088-0.449-0.195-0.578c-0.164-0.197-0.377-0.297-0.639-0.297c-0.238,0-0.438,0.078-0.6,0.237
				C-239.446,415.225-239.535,415.438-239.552,415.703z"/>
			<path fill="#F9C814" d="M-235.804,417.519v-4.206h0.516v4.206H-235.804z"/>
			<path fill="#F9C814" d="M-233.798,415.995c0-0.564,0.156-0.981,0.47-1.253c0.263-0.227,0.582-0.34,0.958-0.34
				c0.419,0,0.762,0.139,1.027,0.412c0.266,0.275,0.399,0.654,0.399,1.137c0,0.393-0.06,0.701-0.177,0.926
				c-0.119,0.225-0.289,0.4-0.514,0.523c-0.225,0.125-0.471,0.187-0.736,0.187c-0.427,0-0.771-0.137-1.033-0.409
				C-233.667,416.903-233.798,416.51-233.798,415.995z M-233.269,415.995c0,0.39,0.086,0.683,0.256,0.876
				c0.17,0.195,0.385,0.291,0.643,0.291c0.256,0,0.469-0.098,0.639-0.292c0.171-0.196,0.256-0.493,0.256-0.893
				c0-0.376-0.085-0.661-0.256-0.856c-0.171-0.193-0.385-0.291-0.639-0.291c-0.258,0-0.473,0.098-0.643,0.29
				C-233.183,415.313-233.269,415.605-233.269,415.995z"/>
			<path fill="#F9C814" d="M-229.458,418.686v-4.213h0.471v0.395c0.111-0.154,0.236-0.271,0.375-0.348
				c0.141-0.078,0.31-0.117,0.509-0.117c0.259,0,0.489,0.068,0.688,0.202c0.198,0.133,0.349,0.322,0.449,0.565
				c0.102,0.244,0.152,0.512,0.152,0.802c0,0.313-0.055,0.593-0.167,0.843c-0.112,0.249-0.274,0.44-0.487,0.574
				c-0.214,0.133-0.438,0.198-0.673,0.198c-0.173,0-0.327-0.036-0.464-0.108c-0.137-0.073-0.25-0.164-0.336-0.275v1.482H-229.458z
				 M-228.99,416.013c0,0.392,0.078,0.682,0.236,0.869c0.158,0.187,0.352,0.28,0.577,0.28c0.229,0,0.427-0.096,0.591-0.291
				c0.162-0.193,0.244-0.494,0.244-0.902c0-0.387-0.08-0.679-0.239-0.871c-0.159-0.193-0.351-0.29-0.572-0.29
				c-0.22,0-0.414,0.103-0.585,0.309C-228.906,415.322-228.99,415.621-228.99,416.013z"/>
			<path fill="#F9C814" d="M-225.31,417.519v-3.046h0.463v0.427c0.096-0.149,0.223-0.269,0.382-0.36
				c0.157-0.091,0.339-0.137,0.542-0.137c0.226,0,0.41,0.047,0.555,0.142c0.145,0.094,0.246,0.225,0.306,0.393
				c0.241-0.355,0.554-0.534,0.941-0.534c0.302,0,0.534,0.084,0.696,0.252c0.162,0.167,0.244,0.425,0.244,0.772v2.092h-0.514V415.6
				c0-0.207-0.017-0.355-0.05-0.447c-0.034-0.09-0.095-0.164-0.183-0.219s-0.191-0.083-0.31-0.083c-0.214,0-0.392,0.071-0.534,0.214
				c-0.141,0.143-0.211,0.371-0.211,0.684v1.771h-0.518v-1.979c0-0.229-0.041-0.402-0.125-0.517s-0.223-0.172-0.414-0.172
				c-0.145,0-0.279,0.038-0.402,0.114c-0.124,0.077-0.213,0.188-0.27,0.336c-0.055,0.147-0.082,0.359-0.082,0.637v1.581H-225.31z"/>
			<path fill="#F9C814" d="M-217.449,416.537l0.533,0.066c-0.084,0.312-0.24,0.553-0.468,0.725s-0.519,0.259-0.872,0.259
				c-0.445,0-0.799-0.137-1.06-0.411s-0.392-0.66-0.392-1.154c0-0.513,0.132-0.911,0.395-1.193c0.265-0.283,0.607-0.426,1.029-0.426
				c0.406,0,0.738,0.14,0.998,0.416c0.258,0.277,0.387,0.668,0.387,1.171c0,0.03-0.002,0.076-0.004,0.138h-2.271
				c0.019,0.334,0.113,0.591,0.284,0.769c0.171,0.179,0.383,0.267,0.637,0.267c0.189,0,0.351-0.049,0.485-0.148
				C-217.634,416.914-217.527,416.755-217.449,416.537z M-219.144,415.703h1.701c-0.023-0.256-0.088-0.449-0.195-0.578
				c-0.164-0.197-0.377-0.297-0.64-0.297c-0.237,0-0.437,0.078-0.599,0.237C-219.038,415.225-219.127,415.438-219.144,415.703z"/>
			<path fill="#F9C814" d="M-215.385,417.519v-3.046h0.464v0.432c0.225-0.334,0.547-0.502,0.971-0.502
				c0.184,0,0.352,0.033,0.506,0.1c0.153,0.065,0.27,0.152,0.346,0.26s0.129,0.234,0.16,0.381c0.02,0.096,0.029,0.264,0.029,0.502
				v1.874h-0.517v-1.853c0-0.211-0.021-0.367-0.061-0.473c-0.04-0.104-0.11-0.188-0.214-0.25c-0.102-0.062-0.223-0.093-0.36-0.093
				c-0.22,0-0.409,0.069-0.569,0.209c-0.159,0.14-0.239,0.405-0.239,0.795v1.664H-215.385z"/>
			<path fill="#F9C814" d="M-210.11,417.057l0.074,0.456c-0.146,0.03-0.274,0.046-0.39,0.046c-0.188,0-0.333-0.029-0.436-0.09
				c-0.104-0.059-0.176-0.137-0.219-0.233c-0.042-0.097-0.063-0.3-0.063-0.609v-1.753h-0.379v-0.4h0.379v-0.756l0.514-0.309v1.064
				h0.519v0.4h-0.519v1.781c0,0.147,0.009,0.242,0.025,0.284c0.02,0.043,0.049,0.076,0.09,0.101c0.041,0.025,0.1,0.037,0.176,0.037
				C-210.28,417.076-210.203,417.07-210.11,417.057z"/>
			<path fill="#F9C814" d="M-203.144,416.044l0.557,0.141c-0.117,0.456-0.326,0.806-0.631,1.045c-0.303,0.24-0.673,0.36-1.111,0.36
				c-0.452,0-0.822-0.092-1.105-0.276c-0.284-0.185-0.5-0.452-0.648-0.802s-0.223-0.727-0.223-1.128
				c0-0.438,0.084-0.819,0.252-1.146c0.166-0.326,0.405-0.574,0.713-0.742c0.311-0.17,0.649-0.254,1.021-0.254
				c0.421,0,0.774,0.105,1.062,0.32s0.486,0.516,0.6,0.904l-0.548,0.128c-0.097-0.306-0.239-0.528-0.425-0.667
				c-0.186-0.141-0.418-0.211-0.7-0.211c-0.323,0-0.593,0.078-0.81,0.232c-0.217,0.156-0.37,0.363-0.457,0.624
				c-0.088,0.261-0.133,0.53-0.133,0.808c0,0.357,0.053,0.67,0.156,0.937c0.104,0.268,0.266,0.466,0.486,0.599
				c0.22,0.132,0.458,0.198,0.715,0.198c0.311,0,0.574-0.09,0.791-0.271C-203.369,416.664-203.22,416.397-203.144,416.044z"/>
			<path fill="#F9C814" d="M-201.279,415.995c0-0.564,0.156-0.981,0.47-1.253c0.263-0.227,0.581-0.34,0.958-0.34
				c0.42,0,0.762,0.139,1.027,0.412c0.266,0.275,0.398,0.654,0.398,1.137c0,0.393-0.059,0.701-0.176,0.926
				c-0.118,0.225-0.289,0.4-0.514,0.523c-0.225,0.125-0.471,0.187-0.736,0.187c-0.426,0-0.771-0.137-1.033-0.409
				C-201.148,416.903-201.279,416.51-201.279,415.995z M-200.748,415.995c0,0.39,0.084,0.683,0.254,0.876
				c0.17,0.195,0.385,0.291,0.643,0.291c0.256,0,0.47-0.098,0.641-0.292c0.17-0.196,0.255-0.493,0.255-0.893
				c0-0.376-0.085-0.661-0.257-0.856c-0.171-0.193-0.383-0.291-0.639-0.291c-0.258,0-0.473,0.098-0.643,0.29
				C-200.664,415.313-200.748,415.605-200.748,415.995z"/>
			<path fill="#F9C814" d="M-196.944,417.519v-3.046h0.466v0.461c0.117-0.216,0.227-0.358,0.328-0.428
				c0.1-0.068,0.211-0.104,0.33-0.104c0.174,0,0.352,0.056,0.531,0.167l-0.178,0.479c-0.127-0.074-0.253-0.112-0.379-0.112
				c-0.113,0-0.214,0.034-0.304,0.103c-0.09,0.067-0.155,0.161-0.192,0.282c-0.057,0.184-0.086,0.384-0.086,0.602v1.596H-196.944z"
				/>
			<path fill="#F9C814" d="M-194.101,418.686v-4.213h0.471v0.395c0.111-0.154,0.236-0.271,0.375-0.348
				c0.141-0.078,0.31-0.117,0.508-0.117c0.261,0,0.49,0.068,0.689,0.202c0.198,0.133,0.35,0.322,0.45,0.565
				c0.102,0.244,0.153,0.512,0.153,0.802c0,0.313-0.057,0.593-0.169,0.843c-0.112,0.249-0.274,0.44-0.488,0.574
				c-0.212,0.133-0.437,0.198-0.672,0.198c-0.173,0-0.327-0.036-0.464-0.108c-0.137-0.073-0.249-0.164-0.338-0.275v1.482H-194.101z
				 M-193.633,416.013c0,0.392,0.079,0.682,0.238,0.869c0.158,0.187,0.351,0.28,0.577,0.28c0.229,0,0.426-0.096,0.59-0.291
				c0.162-0.193,0.244-0.494,0.244-0.902c0-0.387-0.08-0.679-0.238-0.871c-0.16-0.193-0.352-0.29-0.572-0.29
				s-0.415,0.103-0.585,0.309C-193.548,415.322-193.633,415.621-193.633,416.013z"/>
			<path fill="#F9C814" d="M-190.144,415.995c0-0.564,0.156-0.981,0.47-1.253c0.263-0.227,0.581-0.34,0.958-0.34
				c0.419,0,0.761,0.139,1.027,0.412c0.266,0.275,0.398,0.654,0.398,1.137c0,0.393-0.059,0.701-0.176,0.926
				c-0.119,0.225-0.289,0.4-0.515,0.523c-0.224,0.125-0.47,0.187-0.735,0.187c-0.427,0-0.771-0.137-1.034-0.409
				C-190.013,416.903-190.144,416.51-190.144,415.995z M-189.615,415.995c0,0.39,0.086,0.683,0.256,0.876
				c0.17,0.195,0.385,0.291,0.643,0.291c0.256,0,0.469-0.098,0.639-0.292c0.171-0.196,0.256-0.493,0.256-0.893
				c0-0.376-0.085-0.661-0.256-0.856c-0.172-0.193-0.385-0.291-0.639-0.291c-0.258,0-0.473,0.098-0.643,0.29
				C-189.529,415.313-189.615,415.605-189.615,415.995z"/>
			<path fill="#F9C814" d="M-185.808,417.519v-3.046h0.463v0.461c0.119-0.216,0.229-0.358,0.329-0.428
				c0.101-0.068,0.21-0.104,0.331-0.104c0.174,0,0.352,0.056,0.531,0.167l-0.178,0.479c-0.127-0.074-0.252-0.112-0.379-0.112
				c-0.113,0-0.215,0.034-0.305,0.103c-0.09,0.067-0.154,0.161-0.192,0.282c-0.058,0.184-0.085,0.384-0.085,0.602v1.596H-185.808z"
				/>
			<path fill="#F9C814" d="M-180.978,417.143c-0.191,0.162-0.375,0.277-0.553,0.344c-0.177,0.067-0.367,0.101-0.569,0.101
				c-0.335,0-0.592-0.081-0.771-0.245s-0.271-0.372-0.271-0.627c0-0.148,0.035-0.285,0.104-0.408
				c0.066-0.123,0.156-0.223,0.266-0.297c0.111-0.075,0.234-0.131,0.372-0.17c0.101-0.027,0.254-0.053,0.459-0.077
				c0.417-0.05,0.724-0.108,0.921-0.177c0.002-0.072,0.002-0.116,0.002-0.136c0-0.211-0.049-0.358-0.146-0.444
				c-0.132-0.117-0.328-0.176-0.588-0.176c-0.242,0-0.422,0.043-0.537,0.128c-0.116,0.086-0.202,0.235-0.258,0.452l-0.504-0.068
				c0.046-0.217,0.121-0.392,0.227-0.524c0.105-0.132,0.256-0.235,0.457-0.308c0.197-0.07,0.429-0.107,0.691-0.107
				c0.259,0,0.471,0.031,0.633,0.093c0.162,0.061,0.281,0.138,0.358,0.231c0.077,0.092,0.13,0.209,0.161,0.351
				c0.017,0.088,0.025,0.247,0.025,0.476v0.689c0,0.479,0.012,0.783,0.033,0.91c0.022,0.127,0.065,0.25,0.131,0.366h-0.539
				C-180.929,417.411-180.962,417.285-180.978,417.143z M-181.021,415.989c-0.188,0.076-0.469,0.142-0.844,0.195
				c-0.213,0.03-0.362,0.064-0.451,0.104c-0.088,0.038-0.155,0.094-0.202,0.167c-0.05,0.074-0.072,0.156-0.072,0.246
				c0,0.138,0.052,0.252,0.156,0.344s0.257,0.138,0.458,0.138c0.199,0,0.375-0.044,0.529-0.131c0.156-0.087,0.27-0.206,0.343-0.356
				c0.055-0.117,0.083-0.289,0.083-0.517V415.989z"/>
			<path fill="#F9C814" d="M-177.691,417.057l0.075,0.456c-0.146,0.03-0.276,0.046-0.39,0.046c-0.188,0-0.333-0.029-0.437-0.09
				c-0.104-0.059-0.177-0.137-0.218-0.233c-0.043-0.097-0.063-0.3-0.063-0.609v-1.753h-0.38v-0.4h0.38v-0.756l0.513-0.309v1.064
				h0.519v0.4h-0.519v1.781c0,0.147,0.009,0.242,0.026,0.284c0.02,0.043,0.048,0.076,0.09,0.101c0.041,0.025,0.1,0.037,0.176,0.037
				C-177.86,417.076-177.785,417.07-177.691,417.057z"/>
			<path fill="#F9C814" d="M-176.302,413.907v-0.595h0.517v0.595H-176.302z M-176.302,417.519v-3.046h0.517v3.046H-176.302z"/>
			<path fill="#F9C814" d="M-174.31,415.995c0-0.564,0.156-0.981,0.47-1.253c0.263-0.227,0.581-0.34,0.958-0.34
				c0.419,0,0.762,0.139,1.027,0.412c0.266,0.275,0.398,0.654,0.398,1.137c0,0.393-0.059,0.701-0.176,0.926
				c-0.118,0.225-0.289,0.4-0.514,0.523c-0.225,0.125-0.471,0.187-0.736,0.187c-0.426,0-0.771-0.137-1.033-0.409
				C-174.179,416.903-174.31,416.51-174.31,415.995z M-173.781,415.995c0,0.39,0.086,0.683,0.256,0.876
				c0.17,0.195,0.385,0.291,0.643,0.291c0.256,0,0.47-0.098,0.641-0.292c0.17-0.196,0.255-0.493,0.255-0.893
				c0-0.376-0.085-0.661-0.257-0.856c-0.171-0.193-0.385-0.291-0.639-0.291c-0.258,0-0.473,0.098-0.643,0.29
				C-173.695,415.313-173.781,415.605-173.781,415.995z"/>
			<path fill="#F9C814" d="M-169.97,417.519v-3.046h0.466v0.432c0.224-0.334,0.546-0.502,0.97-0.502c0.183,0,0.352,0.033,0.506,0.1
				c0.154,0.065,0.27,0.152,0.346,0.26s0.131,0.234,0.16,0.381c0.02,0.096,0.029,0.264,0.029,0.502v1.874h-0.517v-1.853
				c0-0.211-0.021-0.367-0.06-0.473c-0.041-0.104-0.111-0.188-0.215-0.25c-0.102-0.062-0.221-0.093-0.359-0.093
				c-0.22,0-0.409,0.069-0.569,0.209c-0.159,0.14-0.239,0.405-0.239,0.795v1.664H-169.97z"/>
		</g>
	</g>
	<g>
		<g>
			<path fill="#F9C814" d="M-288.303,402.292l3.496-0.341c0.211,1.174,0.637,2.035,1.281,2.586s1.512,0.825,2.604,0.825
				c1.157,0,2.03-0.245,2.617-0.734c0.586-0.489,0.879-1.062,0.879-1.718c0-0.42-0.124-0.779-0.37-1.074
				c-0.247-0.295-0.678-0.552-1.294-0.771c-0.42-0.145-1.38-0.404-2.876-0.776c-1.926-0.478-3.278-1.064-4.055-1.761
				c-1.092-0.979-1.639-2.173-1.639-3.581c0-0.905,0.257-1.754,0.771-2.543c0.514-0.788,1.254-1.39,2.222-1.804
				c0.967-0.412,2.135-0.618,3.501-0.618c2.234,0,3.916,0.489,5.045,1.47c1.128,0.979,1.722,2.285,1.778,3.92l-3.593,0.158
				c-0.154-0.914-0.484-1.572-0.99-1.973s-1.264-0.601-2.276-0.601c-1.044,0-1.861,0.214-2.453,0.644
				c-0.38,0.275-0.57,0.643-0.57,1.104c0,0.421,0.179,0.781,0.535,1.08c0.454,0.381,1.553,0.776,3.301,1.19
				c1.749,0.412,3.042,0.84,3.879,1.28c0.837,0.441,1.493,1.044,1.966,1.809c0.474,0.765,0.71,1.71,0.71,2.835
				c0,1.02-0.284,1.975-0.85,2.865c-0.566,0.89-1.368,1.551-2.404,1.984c-1.036,0.434-2.326,0.649-3.873,0.649
				c-2.25,0-3.978-0.521-5.183-1.56C-287.348,405.798-288.068,404.282-288.303,402.292z"/>
			<path fill="#F9C814" d="M-267.808,399.293c0-1.813,0.27-3.334,0.813-4.564c0.404-0.906,0.957-1.72,1.657-2.44
				c0.7-0.721,1.467-1.254,2.301-1.603c1.108-0.469,2.387-0.704,3.836-0.704c2.623,0,4.72,0.813,6.294,2.44
				c1.574,1.626,2.361,3.889,2.361,6.787c0,2.872-0.781,5.119-2.343,6.742s-3.65,2.436-6.265,2.436c-2.646,0-4.75-0.809-6.312-2.424
				C-267.028,404.35-267.808,402.125-267.808,399.293z M-264.107,399.171c0,2.017,0.466,3.544,1.396,4.583
				c0.931,1.041,2.113,1.561,3.545,1.561c1.432,0,2.607-0.516,3.526-1.549c0.919-1.031,1.378-2.578,1.378-4.643
				c0-2.04-0.447-3.562-1.341-4.564c-0.895-1.004-2.082-1.506-3.563-1.506c-1.482,0-2.676,0.508-3.582,1.523
				C-263.653,395.592-264.107,397.124-264.107,399.171z"/>
			<path fill="#F9C814" d="M-244.025,390.285h6.568c1.48,0,2.609,0.113,3.387,0.34c1.044,0.309,1.939,0.854,2.683,1.639
				c0.745,0.785,1.312,1.746,1.7,2.883c0.388,1.138,0.582,2.54,0.582,4.207c0,1.465-0.182,2.728-0.546,3.787
				c-0.445,1.295-1.08,2.344-1.905,3.145c-0.624,0.607-1.465,1.08-2.525,1.42c-0.793,0.252-1.854,0.376-3.181,0.376h-6.763V390.285z
				 M-240.431,393.296v11.788h2.683c1.005,0,1.729-0.058,2.173-0.17c0.582-0.146,1.066-0.393,1.451-0.741
				c0.385-0.347,0.698-0.921,0.94-1.718c0.243-0.797,0.364-1.883,0.364-3.26c0-1.375-0.121-2.432-0.364-3.168
				c-0.242-0.736-0.583-1.312-1.02-1.725c-0.437-0.412-0.991-0.691-1.663-0.838c-0.502-0.113-1.484-0.169-2.949-0.169H-240.431z"/>
			<path fill="#F9C814" d="M-222.329,408.081v-17.796h13.196v3.011h-9.602v3.944h8.934v2.999h-8.934v4.845h9.94v2.997H-222.329z"/>
			<path fill="#F9C814" d="M-202.015,408.081v-17.796h5.766c2.185,0,3.609,0.089,4.273,0.267c1.02,0.268,1.873,0.849,2.562,1.743
				c0.687,0.893,1.031,2.049,1.031,3.465c0,1.093-0.198,2.012-0.595,2.756s-0.9,1.33-1.512,1.754
				c-0.611,0.426-1.232,0.707-1.863,0.844c-0.857,0.171-2.1,0.256-3.727,0.256h-2.343v6.712H-202.015z M-198.422,393.296v5.05h1.966
				c1.417,0,2.363-0.094,2.842-0.279c0.477-0.186,0.852-0.477,1.123-0.874c0.271-0.396,0.406-0.858,0.406-1.384
				c0-0.648-0.19-1.182-0.57-1.603c-0.381-0.421-0.863-0.684-1.445-0.788c-0.429-0.082-1.291-0.122-2.585-0.122H-198.422z"/>
			<path fill="#F9C814" d="M-167.5,408.081h-3.909l-1.553-4.042h-7.115l-1.469,4.042h-3.812l6.931-17.796h3.801L-167.5,408.081z
				 M-174.117,401.041l-2.453-6.604l-2.404,6.604H-174.117z"/>
		</g>
	</g>
</g>
</svg>
